<svg width="40" height="40" viewBox="0 0 40 40" fill="none" xmlns="http://www.w3.org/2000/svg">
<g id="flat-color-icons:google">
<path id="Vector" d="M36.3412 16.7345H34.9987V16.6654H19.9987V23.332H29.4179C28.0437 27.2129 24.3512 29.9987 19.9987 29.9987C14.4762 29.9987 9.9987 25.5212 9.9987 19.9987C9.9987 14.4762 14.4762 9.9987 19.9987 9.9987C22.5479 9.9987 24.867 10.9604 26.6329 12.5312L31.347 7.81703C28.3704 5.04286 24.3887 3.33203 19.9987 3.33203C10.7945 3.33203 3.33203 10.7945 3.33203 19.9987C3.33203 29.2029 10.7945 36.6654 19.9987 36.6654C29.2029 36.6654 36.6654 29.2029 36.6654 19.9987C36.6654 18.8812 36.5504 17.7904 36.3412 16.7345Z" fill="#FFC107"/>
<path id="Vector_2" d="M5.25391 12.2412L10.7297 16.257C12.2114 12.5887 15.7997 9.9987 19.9989 9.9987C22.5481 9.9987 24.8672 10.9604 26.6331 12.5312L31.3472 7.81703C28.3706 5.04286 24.3889 3.33203 19.9989 3.33203C13.5972 3.33203 8.04557 6.9462 5.25391 12.2412Z" fill="#FF3D00"/>
<path id="Vector_3" d="M20.0016 36.6672C24.3066 36.6672 28.2182 35.0197 31.1757 32.3406L26.0174 27.9756C24.2878 29.2909 22.1744 30.0023 20.0016 30.0006C15.6666 30.0006 11.9857 27.2364 10.5991 23.3789L5.16406 27.5664C7.9224 32.9639 13.5241 36.6672 20.0016 36.6672Z" fill="#4CAF50"/>
<path id="Vector_4" d="M36.3425 16.7371H35V16.668H20V23.3346H29.4192C28.7618 25.1816 27.5778 26.7956 26.0133 27.9771L26.0158 27.9755L31.1742 32.3405C30.8092 32.6721 36.6667 28.3346 36.6667 20.0013C36.6667 18.8838 36.5517 17.793 36.3425 16.7371Z" fill="#1976D2"/>
</g>
</svg>
