<svg xmlns="http://www.w3.org/2000/svg" version="1.1" xmlns:xlink="http://www.w3.org/1999/xlink" xmlns:svgjs="http://svgjs.dev/svgjs" width="1500" height="1500" viewBox="0 0 1500 1500"><rect width="1500" height="1500" fill="#000000"></rect><g transform="matrix(0.6666666666666666,0,0,0.6666666666666666,250.67259772255102,256.4)"><svg viewBox="0 0 250 247" data-background-color="#528265" preserveAspectRatio="xMidYMid meet" height="1482" width="1500" xmlns="http://www.w3.org/2000/svg" xmlns:xlink="http://www.w3.org/1999/xlink"><g id="tight-bounds" transform="matrix(1,0,0,1,-0.16814943063775445,-0.09999999999999432)"><svg viewBox="0 0 250.3362988612755 247.2" height="247.2" width="250.3362988612755"><g><svg viewBox="0 0 397.4975999999999 392.51761397356034" height="247.2" width="250.3362988612755"><g><rect width="397.4975999999999" height="9.541868012305196" x="0" y="208.1564054420774" fill="#ffffff" opacity="1" stroke-width="0" stroke="transparent" fill-opacity="1" class="rect-qz-0" data-fill-palette-color="primary" rx="1%" id="qz-0" data-palette-color="#ffffff"></rect></g><g transform="matrix(1,0,0,1,0.9887999999999693,242.67698552847997)"><svg viewBox="0 0 395.52 149.84062844508037" height="149.84062844508037" width="395.52"><g id="textblocktransform"><svg viewBox="0 0 395.52 149.84062844508037" height="149.84062844508037" width="395.52" id="textblock"><g><svg viewBox="0 0 395.52 105.80792657490541" height="105.80792657490541" width="395.52"><g transform="matrix(1,0,0,1,0,0)"><svg width="395.52" viewBox="3.85 -35.9 170.99780953260264 45.75" height="105.80792657490541" data-palette-color="#ffffff"><g transform="matrix(1,0,0,1,0,0)"><g><svg width="13.571389532602634" viewBox="3.16 -36.86 97.23 39.84" height="5.561394834032197" data-palette-color="#ffffff" id="scriptelement" x="158.4656947663013" y="-12.377117417016098"><path d="M27.73 0L3.16 0 3.16-36.36 27.66-36.36 27.66-30.02 10.85-30.02 10.85-21.36 26.4-21.36 26.4-15.02 10.85-15.02 10.85-6.34 27.73-6.34 27.73 0ZM53.14-5.22L47.51-12.64 54.05-12.64 57.33-8.42 60.56-4.65 66.65 2.98 59.48 2.98 55.29-2.17 53.14-5.22ZM67.2-18.18L67.2-18.18Q67.2-12.23 64.96-8.06 62.71-3.89 58.85-1.7 54.99 0.5 50.18 0.5L50.18 0.5Q45.33 0.5 41.47-1.7 37.62-3.91 35.38-8.08 33.15-12.25 33.15-18.18L33.15-18.18Q33.15-24.13 35.38-28.3 37.62-32.48 41.47-34.67 45.33-36.86 50.18-36.86L50.18-36.86Q54.99-36.86 58.85-34.67 62.71-32.48 64.96-28.3 67.2-24.13 67.2-18.18ZM59.41-18.18L59.41-18.18Q59.41-22.03 58.26-24.68 57.12-27.33 55.04-28.69 52.96-30.06 50.18-30.06L50.18-30.06Q47.39-30.06 45.31-28.69 43.23-27.33 42.09-24.68 40.94-22.03 40.94-18.18L40.94-18.18Q40.94-14.33 42.09-11.68 43.23-9.04 45.31-7.67 47.39-6.3 50.18-6.3L50.18-6.3Q52.96-6.3 55.04-7.67 57.12-9.04 58.26-11.68 59.41-14.33 59.41-18.18ZM86.27 0.5L86.27 0.5Q82.17 0.5 78.98-0.84 75.79-2.18 73.98-4.51 72.17-6.84 72.17-9.78L72.17-9.78Q72.17-12.06 73.21-13.96 74.25-15.87 76.04-17.14 77.84-18.41 80.06-18.77L80.06-18.77 80.06-19.02Q77.14-19.6 75.33-21.85 73.52-24.09 73.52-27.08L73.52-27.08Q73.52-29.9 75.17-32.11 76.82-34.32 79.71-35.59 82.59-36.86 86.27-36.86L86.27-36.86Q89.95-36.86 92.83-35.58 95.72-34.3 97.37-32.09 99.02-29.88 99.04-27.08L99.04-27.08Q99.02-24.08 97.19-21.84 95.36-19.6 92.5-19.02L92.5-19.02 92.5-18.77Q94.69-18.41 96.47-17.14 98.25-15.87 99.31-13.96 100.37-12.06 100.39-9.78L100.39-9.78Q100.37-6.84 98.56-4.51 96.75-2.18 93.56-0.84 90.37 0.5 86.27 0.5ZM86.27-5.15L86.27-5.15Q88.1-5.15 89.47-5.81 90.83-6.48 91.61-7.66 92.38-8.84 92.38-10.39L92.38-10.39Q92.38-11.97 91.58-13.18 90.78-14.4 89.41-15.1 88.05-15.8 86.27-15.8L86.27-15.8Q84.51-15.8 83.13-15.1 81.74-14.4 80.95-13.18 80.16-11.97 80.16-10.39L80.16-10.39Q80.16-8.84 80.93-7.66 81.69-6.48 83.07-5.81 84.46-5.15 86.27-5.15ZM86.27-21.4L86.27-21.4Q87.8-21.4 88.99-22.02 90.18-22.64 90.85-23.74 91.53-24.84 91.53-26.28L91.53-26.28Q91.53-27.7 90.85-28.77 90.18-29.85 89-30.46 87.83-31.07 86.27-31.07L86.27-31.07Q84.73-31.07 83.54-30.46 82.35-29.85 81.68-28.77 81.01-27.7 81.01-26.28L81.01-26.28Q81.01-24.84 81.69-23.74 82.36-22.64 83.55-22.02 84.74-21.4 86.27-21.4Z" opacity="1" transform="matrix(1,0,0,1,0,0)" fill="#ffffff" class="undefined-123" data-fill-palette-color="primary" id="yy-123"></path></svg></g></g><path d="M155.655-9.596C155.655-14.896 159.951-19.193 165.251-19.193 170.551-19.193 174.848-14.896 174.848-9.596 174.848-4.296 170.551 0 165.251 0 159.951 0 155.655-4.296 155.655-9.596ZM165.251-0.4C170.33-0.4 174.448-4.517 174.448-9.596 174.448-14.675 170.33-18.793 165.251-18.793 160.172-18.793 156.055-14.675 156.055-9.596 156.055-4.517 160.172-0.4 165.251-0.4Z" fill="#ffffff" id="scriptcircle" data-fill-palette-color="primary"></path><g class="wordmark-text-0" data-fill-palette-color="primary" id="text-0"><path d="M22.65-3.55L22.65 0 3.85 0 3.85-33.7 22.4-33.7 22.4-30.15 7.9-30.15 7.9-18.6 20.7-18.6 20.7-15.05 7.9-15.05 7.9-3.55 22.65-3.55ZM31.3-12.9L31.3-12.9Q31.3-8.25 33.35-5.73 35.4-3.2 38.6-3.2L38.6-3.2Q41.35-3.2 43.57-5.48 45.8-7.75 45.8-12.65L45.8-12.65Q45.8-17.7 43.6-19.93 41.4-22.15 38.35-22.15 35.3-22.15 33.3-19.6 31.3-17.05 31.3-12.9ZM49.75-25.35L49.75 9.85 45.8 9.85 45.8-3.8Q43.05 0.4 38.1 0.4L38.1 0.4Q33.25 0.4 30.22-3.33 27.2-7.05 27.2-12.9L27.2-12.9Q27.2-18.4 30.1-22.08 33-25.75 38.05-25.75 43.1-25.75 45.8-21.6L45.8-21.6 45.8-25.35 49.75-25.35ZM76.75-25.35L76.75 0 72.8 0 72.8-4.4Q70.8 0.3 64.84 0.3L64.84 0.3Q61.1 0.3 58.92-1.93 56.75-4.15 56.75-7.9L56.75-7.9 56.75-25.35 60.7-25.35 60.7-8.9Q60.7-6.15 62.1-4.7 63.5-3.25 65.9-3.25L65.9-3.25Q69.05-3.25 70.92-5.45 72.8-7.65 72.8-11.4L72.8-11.4 72.8-25.35 76.75-25.35ZM88.19-25.35L88.19 0 84.24 0 84.24-25.35 88.19-25.35ZM88.04-35.15Q88.79-34.4 88.79-33.3 88.79-32.2 88.04-31.48 87.29-30.75 86.19-30.75 85.09-30.75 84.37-31.48 83.64-32.2 83.64-33.3 83.64-34.4 84.37-35.15 85.09-35.9 86.19-35.9 87.29-35.9 88.04-35.15ZM108.19 0L108.19 0 95.89 0 95.89-33.7 106.04-33.7Q111.24-33.7 114.37-31.3 117.49-28.9 117.49-24.85L117.49-24.85Q117.49-21.95 115.87-19.83 114.24-17.7 111.69-17.15L111.69-17.15Q114.49-16.7 116.47-14.63 118.44-12.55 118.44-9L118.44-9Q118.44-4.95 115.77-2.48 113.09 0 108.19 0ZM106.04-30.25L106.04-30.25 99.94-30.25 99.94-18.75 105.34-18.75Q109.39-18.75 111.34-20.45 113.29-22.15 113.29-24.85L113.29-24.85Q113.29-27.2 111.47-28.73 109.64-30.25 106.04-30.25ZM106.84-15.3L106.84-15.3 99.94-15.3 99.94-3.45 107.59-3.45Q110.79-3.45 112.52-4.93 114.24-6.4 114.24-9.25 114.24-12.1 112.32-13.7 110.39-15.3 106.84-15.3ZM128.39-25.35L128.39 0 124.44 0 124.44-25.35 128.39-25.35ZM128.24-35.15Q128.99-34.4 128.99-33.3 128.99-32.2 128.24-31.48 127.49-30.75 126.39-30.75 125.29-30.75 124.56-31.48 123.84-32.2 123.84-33.3 123.84-34.4 124.56-35.15 125.29-35.9 126.39-35.9 127.49-35.9 128.24-35.15ZM140.04-35.35L140.04 0 136.09 0 136.09-35.35 140.04-35.35ZM151.68-35.35L151.68 0 147.73 0 147.73-35.35 151.68-35.35Z" fill="#ffffff" data-fill-palette-color="primary"></path></g></svg></g></svg></g><g transform="matrix(1,0,0,1,0,130.78663864900278)"><svg viewBox="0 0 335.43835560605737 19.05398979607758" height="19.05398979607758" width="335.43835560605737"><g transform="matrix(1,0,0,1,0,0)"><svg width="335.43835560605737" viewBox="3.05 -35.1 799.25 45.400000000000006" height="19.05398979607758" data-palette-color="#ffffff"><path d="M16.6-35.1L16.6-35.1Q18.8-35.1 20.38-35 21.95-34.9 23.28-34.68 24.6-34.45 26-34.1L26-34.1 25.55-30.75Q24.05-30.9 22.78-31 21.5-31.1 20.05-31.15 18.6-31.2 16.6-31.2L16.6-31.2Q13.25-31.2 11.3-29.9 9.35-28.6 8.53-25.55 7.7-22.5 7.7-17.25L7.7-17.25Q7.7-12 8.53-8.95 9.35-5.9 11.3-4.6 13.25-3.3 16.6-3.3L16.6-3.3Q19.8-3.3 21.98-3.43 24.15-3.55 26.25-3.85L26.25-3.85 26.7-0.55Q24.55 0.05 22.28 0.33 20 0.6 16.6 0.6L16.6 0.6Q11.65 0.6 8.68-1.13 5.7-2.85 4.38-6.75 3.05-10.65 3.05-17.25L3.05-17.25Q3.05-23.85 4.38-27.75 5.7-31.65 8.68-33.38 11.65-35.1 16.6-35.1ZM42.7-24.95L42.7-24.95Q46.9-24.95 49.43-23.7 51.95-22.45 53.05-19.63 54.15-16.8 54.15-12.15L54.15-12.15Q54.15-7.5 53.05-4.67 51.95-1.85 49.43-0.6 46.9 0.65 42.7 0.65L42.7 0.65Q38.55 0.65 36.03-0.6 33.5-1.85 32.38-4.67 31.25-7.5 31.25-12.15L31.25-12.15Q31.25-16.8 32.38-19.63 33.5-22.45 36.03-23.7 38.55-24.95 42.7-24.95ZM42.7-21.35L42.7-21.35Q40.05-21.35 38.53-20.53 37-19.7 36.35-17.7 35.7-15.7 35.7-12.15L35.7-12.15Q35.7-8.6 36.35-6.6 37-4.6 38.53-3.78 40.05-2.95 42.7-2.95L42.7-2.95Q45.35-2.95 46.9-3.78 48.45-4.6 49.1-6.6 49.75-8.6 49.75-12.15L49.75-12.15Q49.75-15.7 49.1-17.7 48.45-19.7 46.9-20.53 45.35-21.35 42.7-21.35ZM68.9-24.95L68.9-24.95Q70.5-24.95 72.3-24.85 74.1-24.75 75.88-24.6 77.65-24.45 79.15-24.2L79.15-24.2 78.8-21.1Q76.5-21.2 74.18-21.28 71.85-21.35 69.55-21.35L69.55-21.35Q67.3-21.4 66-21.25 64.7-21.1 64.13-20.45 63.55-19.8 63.55-18.25L63.55-18.25Q63.55-16.35 64.45-15.75 65.35-15.15 67.1-14.75L67.1-14.75 74.2-13.15Q77.1-12.45 78.48-11 79.85-9.55 79.85-6.45L79.85-6.45Q79.85-3.45 78.73-1.95 77.6-0.45 75.3 0.05 73 0.55 69.45 0.55L69.45 0.55Q68.15 0.55 65.58 0.45 63 0.35 59.9-0.15L59.9-0.15 60.2-3.25Q61.4-3.2 62.75-3.13 64.1-3.05 65.58-3.05 67.05-3.05 68.6-3.05L68.6-3.05Q71.35-3.05 72.9-3.3 74.45-3.55 75.1-4.28 75.75-5 75.75-6.45L75.75-6.45Q75.75-8.25 74.7-8.85 73.65-9.45 71.9-9.85L71.9-9.85 64.9-11.45Q62.9-11.95 61.7-12.78 60.5-13.6 59.95-14.93 59.4-16.25 59.4-18.25L59.4-18.25Q59.4-21.1 60.4-22.55 61.4-24 63.5-24.5 65.6-25 68.9-24.95ZM88.05-31.55L92.3-31.55 92.3-6.7Q92.3-4.95 93.05-4.2 93.8-3.45 95.6-3.45L95.6-3.45 99.3-3.45 99.8-0.2Q99 0 97.95 0.15 96.9 0.3 95.9 0.38 94.9 0.45 94.3 0.45L94.3 0.45Q91.25 0.45 89.65-1.25 88.05-2.95 88.05-6.15L88.05-6.15 88.05-31.55ZM88.45-24.35L100.05-24.35 100.05-21 83.65-21 83.65-24.1 88.45-24.35ZM113.35-24.95L113.35-24.95Q114.95-24.95 116.75-24.85 118.55-24.75 120.33-24.6 122.1-24.45 123.6-24.2L123.6-24.2 123.25-21.1Q120.95-21.2 118.63-21.28 116.3-21.35 114-21.35L114-21.35Q111.75-21.4 110.45-21.25 109.15-21.1 108.58-20.45 108-19.8 108-18.25L108-18.25Q108-16.35 108.9-15.75 109.8-15.15 111.55-14.75L111.55-14.75 118.65-13.15Q121.55-12.45 122.93-11 124.3-9.55 124.3-6.45L124.3-6.45Q124.3-3.45 123.18-1.95 122.05-0.45 119.75 0.05 117.45 0.55 113.9 0.55L113.9 0.55Q112.6 0.55 110.03 0.45 107.45 0.35 104.35-0.15L104.35-0.15 104.65-3.25Q105.85-3.2 107.2-3.13 108.55-3.05 110.03-3.05 111.5-3.05 113.05-3.05L113.05-3.05Q115.8-3.05 117.35-3.3 118.9-3.55 119.55-4.28 120.2-5 120.2-6.45L120.2-6.45Q120.2-8.25 119.15-8.85 118.1-9.45 116.35-9.85L116.35-9.85 109.35-11.45Q107.35-11.95 106.15-12.78 104.95-13.6 104.4-14.93 103.85-16.25 103.85-18.25L103.85-18.25Q103.85-21.1 104.85-22.55 105.85-24 107.95-24.5 110.05-25 113.35-24.95ZM149.05-34.5L153.45-34.5 153.45 0 149.05 0 149.05-34.5ZM137.95-34.5L164.6-34.5 164.6-30.6 137.95-30.6 137.95-34.5ZM174.4-24.95L174.4-24.95Q178.6-24.95 181.13-23.7 183.65-22.45 184.75-19.63 185.85-16.8 185.85-12.15L185.85-12.15Q185.85-7.5 184.75-4.67 183.65-1.85 181.13-0.6 178.6 0.65 174.4 0.65L174.4 0.65Q170.25 0.65 167.73-0.6 165.2-1.85 164.08-4.67 162.95-7.5 162.95-12.15L162.95-12.15Q162.95-16.8 164.08-19.63 165.2-22.45 167.73-23.7 170.25-24.95 174.4-24.95ZM174.4-21.35L174.4-21.35Q171.75-21.35 170.23-20.53 168.7-19.7 168.05-17.7 167.4-15.7 167.4-12.15L167.4-12.15Q167.4-8.6 168.05-6.6 168.7-4.6 170.23-3.78 171.75-2.95 174.4-2.95L174.4-2.95Q177.05-2.95 178.6-3.78 180.15-4.6 180.8-6.6 181.45-8.6 181.45-12.15L181.45-12.15Q181.45-15.7 180.8-17.7 180.15-19.7 178.6-20.53 177.05-21.35 174.4-21.35ZM202.15-24.95L202.15-24.95Q206.05-24.95 208.33-24.15 210.6-23.35 211.58-21.65 212.55-19.95 212.55-17.2L212.55-17.2Q212.55-14.55 211.58-12.83 210.6-11.1 208.3-10.28 206-9.45 202.1-9.45L202.1-9.45Q198.2-9.45 195.93-10.28 193.65-11.1 192.68-12.8 191.7-14.5 191.7-17.15L191.7-17.15Q191.7-19.9 192.68-21.63 193.65-23.35 195.95-24.15 198.25-24.95 202.15-24.95ZM202.1-21.7L202.1-21.7Q198.45-21.7 197.03-20.68 195.6-19.65 195.6-17.2L195.6-17.2Q195.6-14.8 197.03-13.75 198.45-12.7 202.1-12.7L202.1-12.7Q205.8-12.7 207.2-13.75 208.6-14.8 208.6-17.2L208.6-17.2Q208.6-19.65 207.2-20.68 205.8-21.7 202.1-21.7ZM207.2-24.35L215.4-24.35 215.15-22 208.95-21.5 207.2-24.35ZM195.25-11.05L195.25-11.05 197.7-10.7Q196.85-9.95 196.55-8.88 196.25-7.8 196.73-6.9 197.2-6 198.75-5.75L198.75-5.75 207.85-4.3Q211.3-3.8 212.65-2.15 214-0.5 214 2.55L214 2.55Q214 5.4 212.93 7.05 211.85 8.7 209.3 9.4 206.75 10.1 202.4 10.1L202.4 10.1Q199.1 10.1 196.85 9.73 194.6 9.35 193.23 8.47 191.85 7.6 191.25 6.2 190.65 4.8 190.65 2.7L190.65 2.7Q190.65 1.1 191.13 0.03 191.6-1.05 192.63-1.9 193.65-2.75 195.3-3.55L195.3-3.55 198.3-5.2 200.25-4.5 197.8-2.65Q196.8-1.9 196.13-1.18 195.45-0.45 195.13 0.38 194.8 1.2 194.8 2.35L194.8 2.35Q194.8 4.05 195.45 4.95 196.1 5.85 197.75 6.18 199.4 6.5 202.35 6.5L202.35 6.5Q205.3 6.5 206.93 6.15 208.55 5.8 209.2 4.9 209.85 4 209.85 2.35L209.85 2.35Q209.85 1.1 209.53 0.45 209.2-0.2 208.3-0.55 207.4-0.9 205.65-1.15L205.65-1.15 196.9-2.35Q195.35-2.55 194.43-3.35 193.5-4.15 193.15-5.25 192.8-6.35 192.95-7.48 193.1-8.6 193.7-9.58 194.3-10.55 195.25-11.05ZM230.2-24.95L230.2-24.95Q235.7-24.95 238.18-22.95 240.65-20.95 240.65-17L240.65-17Q240.7-13.75 239.3-11.93 237.9-10.1 234.85-10.1L234.85-10.1 220.65-10.1 220.65-13.4 233.75-13.4Q235.4-13.4 235.9-14.53 236.4-15.65 236.4-17L236.4-17Q236.35-19.35 235-20.35 233.65-21.35 230.4-21.35L230.4-21.35Q227.75-21.35 226.23-20.58 224.7-19.8 224.08-17.88 223.45-15.95 223.45-12.5L223.45-12.5Q223.45-8.6 224.23-6.55 225-4.5 226.7-3.75 228.4-3 231.2-3L231.2-3Q233.15-3 235.48-3.18 237.8-3.35 239.65-3.6L239.65-3.6 240.1-0.75Q238.95-0.3 237.28 0 235.6 0.3 233.83 0.45 232.05 0.6 230.65 0.6L230.65 0.6Q226.45 0.6 223.9-0.68 221.35-1.95 220.18-4.78 219-7.6 219-12.25L219-12.25Q219-17.05 220.18-19.83 221.35-22.6 223.83-23.78 226.3-24.95 230.2-24.95ZM248.9-31.55L253.15-31.55 253.15-6.7Q253.15-4.95 253.9-4.2 254.65-3.45 256.45-3.45L256.45-3.45 260.15-3.45 260.65-0.2Q259.85 0 258.8 0.15 257.75 0.3 256.75 0.38 255.75 0.45 255.15 0.45L255.15 0.45Q252.1 0.45 250.5-1.25 248.9-2.95 248.9-6.15L248.9-6.15 248.9-31.55ZM249.3-24.35L260.9-24.35 260.9-21 244.5-21 244.5-24.1 249.3-24.35ZM280.9-24.95L280.9-24.95Q287.5-24.95 287.5-18.25L287.5-18.25 287.5 0 283.2 0 283.2-17.05Q283.2-19.5 282.43-20.43 281.65-21.35 279.75-21.35L279.75-21.35Q277.5-21.35 275.25-20.3 273-19.25 269.9-17.25L269.9-17.25 269.7-20.3Q272.55-22.45 275.35-23.7 278.15-24.95 280.9-24.95ZM266.1-35L270.35-35 270.4-25.35Q270.4-23.7 270.28-22.25 270.15-20.8 269.9-19.7L269.9-19.7 270.35-18.95 270.35 0 266.1 0 266.1-35ZM305.15-24.95L305.15-24.95Q310.65-24.95 313.13-22.95 315.6-20.95 315.6-17L315.6-17Q315.65-13.75 314.25-11.93 312.85-10.1 309.8-10.1L309.8-10.1 295.6-10.1 295.6-13.4 308.7-13.4Q310.35-13.4 310.85-14.53 311.35-15.65 311.35-17L311.35-17Q311.3-19.35 309.95-20.35 308.6-21.35 305.35-21.35L305.35-21.35Q302.7-21.35 301.18-20.58 299.65-19.8 299.03-17.88 298.4-15.95 298.4-12.5L298.4-12.5Q298.4-8.6 299.18-6.55 299.95-4.5 301.65-3.75 303.35-3 306.15-3L306.15-3Q308.1-3 310.43-3.18 312.75-3.35 314.6-3.6L314.6-3.6 315.05-0.75Q313.9-0.3 312.23 0 310.55 0.3 308.78 0.45 307 0.6 305.6 0.6L305.6 0.6Q301.4 0.6 298.85-0.68 296.3-1.95 295.13-4.78 293.95-7.6 293.95-12.25L293.95-12.25Q293.95-17.05 295.13-19.83 296.3-22.6 298.78-23.78 301.25-24.95 305.15-24.95ZM322-24.35L325.3-24.35 325.85-19.7 326.25-18.95 326.25 0 322 0 322-24.35ZM336.15-24.95L337.25-24.95 336.75-20.95 335.35-20.95Q333.2-20.95 331.05-20.08 328.9-19.2 325.8-17.6L325.8-17.6 325.45-20.25Q328.15-22.45 330.88-23.7 333.6-24.95 336.15-24.95L336.15-24.95ZM340.55-5.9L341.8-5.9Q342.7-5.9 343.03-5.55 343.35-5.2 343.35-4.3L343.35-4.3 343.35-1.1Q343.35 0.3 343.13 1.65 342.9 3 342.53 4.23 342.15 5.45 341.6 6.6L341.6 6.6 339.6 6Q339.85 4.45 339.98 3.15 340.1 1.85 340.1 0L340.1 0Q338.9 0 338.9-1.4L338.9-1.4 338.9-4.3Q338.95-5.2 339.35-5.55 339.75-5.9 340.55-5.9L340.55-5.9ZM390-34.5L394.95-34.5Q396.75-34.5 396.75-32.65L396.75-32.65 398.2 0 393.8 0 392.55-30.85 391.5-30.85 383.8-5.4Q383.4-3.9 381.9-3.9L381.9-3.9 377.95-3.9Q376.4-3.9 375.95-5.4L375.95-5.4 368.25-30.85 367.25-30.85 366.05 0 361.65 0 363-32.65Q363.1-34.5 364.85-34.5L364.85-34.5 369.85-34.5Q371.25-34.5 371.7-33L371.7-33 378.15-11.95Q378.55-10.8 378.83-9.65 379.1-8.5 379.45-7.3L379.45-7.3 380.35-7.3Q380.7-8.5 381-9.65 381.3-10.8 381.65-12.05L381.65-12.05 388.1-33Q388.5-34.5 390-34.5L390-34.5ZM416.05-24.95L416.05-24.95Q420.25-24.95 422.78-23.7 425.3-22.45 426.4-19.63 427.5-16.8 427.5-12.15L427.5-12.15Q427.5-7.5 426.4-4.67 425.3-1.85 422.78-0.6 420.25 0.65 416.05 0.65L416.05 0.65Q411.9 0.65 409.38-0.6 406.85-1.85 405.73-4.67 404.6-7.5 404.6-12.15L404.6-12.15Q404.6-16.8 405.73-19.63 406.85-22.45 409.38-23.7 411.9-24.95 416.05-24.95ZM416.05-21.35L416.05-21.35Q413.4-21.35 411.88-20.53 410.35-19.7 409.7-17.7 409.05-15.7 409.05-12.15L409.05-12.15Q409.05-8.6 409.7-6.6 410.35-4.6 411.88-3.78 413.4-2.95 416.05-2.95L416.05-2.95Q418.7-2.95 420.25-3.78 421.8-4.6 422.45-6.6 423.1-8.6 423.1-12.15L423.1-12.15Q423.1-15.7 422.45-17.7 421.8-19.7 420.25-20.53 418.7-21.35 416.05-21.35ZM448.95-24.95L448.95-24.95Q455.55-24.95 455.55-18.25L455.55-18.25 455.55 0 451.3 0 451.3-17.05Q451.3-19.5 450.5-20.43 449.7-21.35 447.8-21.35L447.8-21.35Q445.55-21.35 443.3-20.25 441.05-19.15 437.95-17.25L437.95-17.25 437.75-20.3Q440.6-22.5 443.4-23.73 446.2-24.95 448.95-24.95ZM434.15-24.35L437.75-24.35 438.1-19.7 438.4-18.95 438.4 0 434.15 0 434.15-24.35ZM473.2-24.95L473.2-24.95Q478.7-24.95 481.18-22.95 483.65-20.95 483.65-17L483.65-17Q483.7-13.75 482.3-11.93 480.9-10.1 477.85-10.1L477.85-10.1 463.65-10.1 463.65-13.4 476.75-13.4Q478.4-13.4 478.9-14.53 479.4-15.65 479.4-17L479.4-17Q479.35-19.35 478-20.35 476.65-21.35 473.4-21.35L473.4-21.35Q470.75-21.35 469.23-20.58 467.7-19.8 467.08-17.88 466.45-15.95 466.45-12.5L466.45-12.5Q466.45-8.6 467.23-6.55 468-4.5 469.7-3.75 471.4-3 474.2-3L474.2-3Q476.15-3 478.48-3.18 480.8-3.35 482.65-3.6L482.65-3.6 483.1-0.75Q481.95-0.3 480.28 0 478.6 0.3 476.83 0.45 475.05 0.6 473.65 0.6L473.65 0.6Q469.45 0.6 466.9-0.68 464.35-1.95 463.18-4.78 462-7.6 462-12.25L462-12.25Q462-17.05 463.18-19.83 464.35-22.6 466.83-23.78 469.3-24.95 473.2-24.95ZM506.9-24.35L511.5-24.35 501.75 1.35Q501.15 2.95 500.25 4.5 499.35 6.05 498.08 7.33 496.8 8.6 495.08 9.4 493.35 10.2 491.1 10.3L491.1 10.3 490.7 7.5Q493.65 6.55 495.25 4.95 496.85 3.35 497.8 1.05L497.8 1.05 499-1.85Q499.4-2.85 499.8-4.05 500.2-5.25 500.55-6.2L500.55-6.2 506.9-24.35ZM486.9-24.35L491.45-24.35 497.9-6.2Q498.15-5.45 498.4-4.73 498.65-4 498.8-3.25L498.8-3.25 499.95-3.25 498.55 0 497.25 0Q496.75 0 496.33-0.3 495.9-0.6 495.75-1.1L495.75-1.1 486.9-24.35ZM548-24.35L552.4-24.35 545.3-1.2Q545.15-0.65 544.7-0.33 544.25 0 543.65 0L543.65 0 539.8 0Q539.2 0 538.73-0.38 538.25-0.75 538.15-1.35L538.15-1.35 534.15-17.9Q533.95-18.85 533.78-19.8 533.6-20.75 533.35-21.75L533.35-21.75 532.75-21.75Q532.55-20.75 532.33-19.8 532.1-18.85 531.9-17.9L531.9-17.9 527.95-1.35Q527.8-0.75 527.35-0.38 526.9 0 526.25 0L526.25 0 522.45 0Q521.85 0 521.4-0.33 520.95-0.65 520.8-1.2L520.8-1.2 513.7-24.35 518.1-24.35 523.15-6.4Q523.4-5.5 523.6-4.58 523.8-3.65 523.95-2.75L523.95-2.75 524.6-2.75Q524.85-3.65 525.08-4.58 525.3-5.5 525.5-6.4L525.5-6.4 529.55-23Q529.65-23.6 530.08-23.98 530.5-24.35 531.15-24.35L531.15-24.35 535-24.35Q535.6-24.35 536.03-23.98 536.45-23.6 536.6-22.95L536.6-22.95 540.6-6.4Q540.8-5.5 541.03-4.6 541.25-3.7 541.45-2.75L541.45-2.75 542.1-2.75Q542.35-3.7 542.5-4.58 542.65-5.45 542.95-6.4L542.95-6.4 548-24.35ZM557.75-24.35L561.95-24.35 561.95 0 557.75 0 557.75-24.35ZM558.85-34.7L560.85-34.7Q562.15-34.7 562.15-33.4L562.15-33.4 562.15-30.55Q562.15-29.25 560.85-29.25L560.85-29.25 558.85-29.25Q557.55-29.25 557.55-30.55L557.55-30.55 557.55-33.4Q557.55-34.7 558.85-34.7L558.85-34.7ZM578.05-24.95L578.05-24.95Q579.65-24.95 581.45-24.85 583.25-24.75 585.03-24.6 586.8-24.45 588.3-24.2L588.3-24.2 587.95-21.1Q585.65-21.2 583.33-21.28 581-21.35 578.7-21.35L578.7-21.35Q576.45-21.4 575.15-21.25 573.85-21.1 573.28-20.45 572.7-19.8 572.7-18.25L572.7-18.25Q572.7-16.35 573.6-15.75 574.5-15.15 576.25-14.75L576.25-14.75 583.35-13.15Q586.25-12.45 587.63-11 589-9.55 589-6.45L589-6.45Q589-3.45 587.88-1.95 586.75-0.45 584.45 0.05 582.15 0.55 578.6 0.55L578.6 0.55Q577.3 0.55 574.73 0.45 572.15 0.35 569.05-0.15L569.05-0.15 569.35-3.25Q570.55-3.2 571.9-3.13 573.25-3.05 574.73-3.05 576.2-3.05 577.75-3.05L577.75-3.05Q580.5-3.05 582.05-3.3 583.6-3.55 584.25-4.28 584.9-5 584.9-6.45L584.9-6.45Q584.9-8.25 583.85-8.85 582.8-9.45 581.05-9.85L581.05-9.85 574.05-11.45Q572.05-11.95 570.85-12.78 569.65-13.6 569.1-14.93 568.55-16.25 568.55-18.25L568.55-18.25Q568.55-21.1 569.55-22.55 570.55-24 572.65-24.5 574.75-25 578.05-24.95ZM605.35-24.95L605.35-24.95Q610.85-24.95 613.33-22.95 615.8-20.95 615.8-17L615.8-17Q615.85-13.75 614.45-11.93 613.05-10.1 610-10.1L610-10.1 595.8-10.1 595.8-13.4 608.9-13.4Q610.55-13.4 611.05-14.53 611.55-15.65 611.55-17L611.55-17Q611.5-19.35 610.15-20.35 608.8-21.35 605.55-21.35L605.55-21.35Q602.9-21.35 601.38-20.58 599.85-19.8 599.23-17.88 598.6-15.95 598.6-12.5L598.6-12.5Q598.6-8.6 599.38-6.55 600.15-4.5 601.85-3.75 603.55-3 606.35-3L606.35-3Q608.3-3 610.63-3.18 612.95-3.35 614.8-3.6L614.8-3.6 615.25-0.75Q614.1-0.3 612.43 0 610.75 0.3 608.98 0.45 607.2 0.6 605.8 0.6L605.8 0.6Q601.6 0.6 599.05-0.68 596.5-1.95 595.33-4.78 594.15-7.6 594.15-12.25L594.15-12.25Q594.15-17.05 595.33-19.83 596.5-22.6 598.98-23.78 601.45-24.95 605.35-24.95ZM640.35-34.55L640.35-34.55Q642.75-34.55 645.2-34.52 647.65-34.5 650.05-34.45 652.45-34.4 654.65-34.2L654.65-34.2 654.4-30.8 641.45-30.8Q639.7-30.8 638.9-30.03 638.1-29.25 638.1-27.5L638.1-27.5 638.1 0 633.7 0 633.7-28.35Q633.7-31.3 635.5-32.93 637.3-34.55 640.35-34.55ZM634.55-15.95L634.55-19.5 652.5-19.5 652.5-15.95 634.55-15.95ZM669.8-24.95L669.8-24.95Q674-24.95 676.53-23.7 679.05-22.45 680.15-19.63 681.25-16.8 681.25-12.15L681.25-12.15Q681.25-7.5 680.15-4.67 679.05-1.85 676.53-0.6 674 0.65 669.8 0.65L669.8 0.65Q665.65 0.65 663.13-0.6 660.6-1.85 659.48-4.67 658.35-7.5 658.35-12.15L658.35-12.15Q658.35-16.8 659.48-19.63 660.6-22.45 663.13-23.7 665.65-24.95 669.8-24.95ZM669.8-21.35L669.8-21.35Q667.15-21.35 665.63-20.53 664.1-19.7 663.45-17.7 662.8-15.7 662.8-12.15L662.8-12.15Q662.8-8.6 663.45-6.6 664.1-4.6 665.63-3.78 667.15-2.95 669.8-2.95L669.8-2.95Q672.45-2.95 674-3.78 675.55-4.6 676.2-6.6 676.85-8.6 676.85-12.15L676.85-12.15Q676.85-15.7 676.2-17.7 675.55-19.7 674-20.53 672.45-21.35 669.8-21.35ZM687.9-24.35L691.2-24.35 691.75-19.7 692.15-18.95 692.15 0 687.9 0 687.9-24.35ZM702.05-24.95L703.15-24.95 702.65-20.95 701.25-20.95Q699.1-20.95 696.95-20.08 694.8-19.2 691.7-17.6L691.7-17.6 691.35-20.25Q694.05-22.45 696.78-23.7 699.5-24.95 702.05-24.95L702.05-24.95ZM717.3-24.95L717.3-24.95Q722.8-24.95 725.28-22.95 727.75-20.95 727.75-17L727.75-17Q727.8-13.75 726.4-11.93 725-10.1 721.95-10.1L721.95-10.1 707.75-10.1 707.75-13.4 720.85-13.4Q722.5-13.4 723-14.53 723.5-15.65 723.5-17L723.5-17Q723.45-19.35 722.1-20.35 720.75-21.35 717.5-21.35L717.5-21.35Q714.85-21.35 713.33-20.58 711.8-19.8 711.18-17.88 710.55-15.95 710.55-12.5L710.55-12.5Q710.55-8.6 711.33-6.55 712.1-4.5 713.8-3.75 715.5-3 718.3-3L718.3-3Q720.25-3 722.58-3.18 724.9-3.35 726.75-3.6L726.75-3.6 727.2-0.75Q726.05-0.3 724.38 0 722.7 0.3 720.93 0.45 719.15 0.6 717.75 0.6L717.75 0.6Q713.55 0.6 711-0.68 708.45-1.95 707.28-4.78 706.1-7.6 706.1-12.25L706.1-12.25Q706.1-17.05 707.28-19.83 708.45-22.6 710.93-23.78 713.4-24.95 717.3-24.95ZM751.15-24.35L755.65-24.35 746.75-1.05Q746.55-0.55 746.18-0.28 745.8 0 745.25 0L745.25 0 741.4 0Q740.9 0 740.5-0.28 740.1-0.55 739.9-1.05L739.9-1.05 731-24.35 735.55-24.35 741.55-7.3Q741.95-6.25 742.3-5.15 742.65-4.05 743-3.05L743-3.05 743.65-3.05Q744.05-4.1 744.43-5.18 744.8-6.25 745.15-7.3L745.15-7.3 751.15-24.35ZM770.2-24.95L770.2-24.95Q775.7-24.95 778.18-22.95 780.65-20.95 780.65-17L780.65-17Q780.7-13.75 779.3-11.93 777.9-10.1 774.85-10.1L774.85-10.1 760.65-10.1 760.65-13.4 773.75-13.4Q775.4-13.4 775.9-14.53 776.4-15.65 776.4-17L776.4-17Q776.35-19.35 775-20.35 773.65-21.35 770.4-21.35L770.4-21.35Q767.75-21.35 766.23-20.58 764.7-19.8 764.08-17.88 763.45-15.95 763.45-12.5L763.45-12.5Q763.45-8.6 764.23-6.55 765-4.5 766.7-3.75 768.4-3 771.2-3L771.2-3Q773.15-3 775.48-3.18 777.8-3.35 779.65-3.6L779.65-3.6 780.1-0.75Q778.95-0.3 777.28 0 775.6 0.3 773.83 0.45 772.05 0.6 770.65 0.6L770.65 0.6Q766.45 0.6 763.9-0.68 761.35-1.95 760.18-4.78 759-7.6 759-12.25L759-12.25Q759-17.05 760.18-19.83 761.35-22.6 763.83-23.78 766.3-24.95 770.2-24.95ZM787.05-24.35L790.35-24.35 790.9-19.7 791.3-18.95 791.3 0 787.05 0 787.05-24.35ZM801.2-24.95L802.3-24.95 801.8-20.95 800.4-20.95Q798.25-20.95 796.1-20.08 793.95-19.2 790.85-17.6L790.85-17.6 790.5-20.25Q793.2-22.45 795.93-23.7 798.65-24.95 801.2-24.95L801.2-24.95Z" opacity="1" transform="matrix(1,0,0,1,0,0)" fill="#ffffff" class="slogan-text-1" data-fill-palette-color="secondary" id="text-1"></path></svg></g></svg></g></svg></g></svg></g><g transform="matrix(1,0,0,1,76.53311999999997,0)"><svg viewBox="0 0 244.43135999999998 183.17769336798005" height="183.17769336798005" width="244.43135999999998"><g><svg xmlns="http://www.w3.org/2000/svg" xmlns:xlink="http://www.w3.org/1999/xlink" version="1.1" x="0" y="0" viewBox="13.109 23.551000000000002 75.428 56.525999999999996" style="enable-background:new 0 0 100 100;" xml:space="preserve" height="183.17769336798005" width="244.43135999999998" class="icon-icon-0" data-fill-palette-color="accent" id="icon-0"><g fill="#ffffff" data-fill-palette-color="accent"><g fill="#ffffff" data-fill-palette-color="accent"><path d="M48.049 34.971h-5.13c-0.708 0-1.282-0.573-1.282-1.282s0.575-1.282 1.282-1.282h5.13c0.708 0 1.282 0.573 1.282 1.282S48.757 34.971 48.049 34.971z" fill="#ffffff" data-fill-palette-color="accent"></path></g><g fill="#ffffff" data-fill-palette-color="accent"><path d="M71.133 40.101H45.485c-0.708 0-1.282-0.573-1.282-1.282s0.575-1.282 1.282-1.282h25.649c0.708 0 1.282 0.573 1.282 1.282S71.841 40.101 71.133 40.101z" fill="#ffffff" data-fill-palette-color="accent"></path></g><g fill="#ffffff" data-fill-palette-color="accent"><path d="M69.851 45.231H41.637c-0.708 0-1.282-0.573-1.282-1.282s0.575-1.282 1.282-1.282h28.214c0.708 0 1.282 0.573 1.282 1.282S70.559 45.231 69.851 45.231z" fill="#ffffff" data-fill-palette-color="accent"></path></g><g fill="#ffffff" data-fill-palette-color="accent"><path d="M71.133 50.361H41.637c-0.708 0-1.282-0.573-1.282-1.282 0-0.709 0.575-1.282 1.282-1.282h29.496c0.708 0 1.282 0.573 1.282 1.282C72.416 49.787 71.841 50.361 71.133 50.361z" fill="#ffffff" data-fill-palette-color="accent"></path></g><g fill="#ffffff" data-fill-palette-color="accent"><path d="M68.568 55.49H41.637c-0.708 0-1.282-0.573-1.282-1.282 0-0.709 0.575-1.282 1.282-1.282h26.931c0.708 0 1.282 0.573 1.282 1.282C69.851 54.917 69.276 55.49 68.568 55.49z" fill="#ffffff" data-fill-palette-color="accent"></path></g><path d="M88.536 36.722l-9.76-0.071 0.021-2.871 6.868 0.05v-4.626c0-1.534-1.248-2.781-2.781-2.781v-2.871c3.116 0 5.653 2.535 5.653 5.653V36.722z" fill="#ffffff" data-fill-palette-color="accent"></path><path d="M72.685 69.519c-1.558 0-2.473-0.632-2.965-1.162-1.069-1.15-0.991-2.661-0.979-2.83-0.004-1.429-1.251-2.676-2.785-2.676v-2.871c3.116 0 5.653 2.536 5.653 5.653-0.006 0.196 0.026 0.576 0.222 0.778 0.19 0.198 0.57 0.238 0.855 0.238V69.519z" fill="#ffffff" data-fill-palette-color="accent"></path><path d="M75.047 69.49H60.333v-3.858c0-1.011 0.266-1.96 0.732-2.781H31.951V29.204c0-3.116 2.536-5.653 5.653-5.653h45.878v2.871c-1.534 0-2.781 1.248-2.781 2.781v34.634C80.7 66.954 78.164 69.49 75.047 69.49zM63.204 66.619h11.843c1.534 0 2.781-1.248 2.781-2.781V29.204c0-1.01 0.266-1.96 0.732-2.781H37.604c-1.534 0-2.781 1.248-2.781 2.781v30.776h31.163v2.871c-1.534 0-2.781 1.248-2.781 2.781V66.619z" fill="#ffffff" data-fill-palette-color="accent"></path><path d="M57.551 80.077H13.109v-2.871c1.534 0 2.781-1.248 2.781-2.781v-8.793c0-3.116 2.536-5.653 5.653-5.653h44.442v2.871c-1.534 0-2.781 1.248-2.781 2.781v8.793C63.204 77.541 60.668 80.077 57.551 80.077zM18.029 77.206h39.522c1.534 0 2.781-1.248 2.781-2.781v-8.793c0-1.011 0.266-1.96 0.732-2.781H21.543c-1.534 0-2.781 1.248-2.781 2.781v8.793C18.762 75.436 18.495 76.385 18.029 77.206z" fill="#ffffff" data-fill-palette-color="accent"></path></g></svg></g></svg></g><g></g></svg></g><defs></defs></svg><rect width="250.3362988612755" height="247.2" fill="none" stroke="none" visibility="hidden"></rect></g></svg></g></svg>