<svg xmlns="http://www.w3.org/2000/svg" xmlns:xlink="http://www.w3.org/1999/xlink" version="1.1" width="1000" height="1000" viewBox="0 0 1000 1000" xml:space="preserve">
<desc>Created with Fabric.js 3.5.0</desc>
<defs>
</defs>
<rect x="0" y="0" width="100%" height="100%" fill="rgba(255,255,255,0)"/>
<g transform="matrix(0.6667 0 0 0.6667 500.025 494.0247)" id="726071">
<g style="" vector-effect="non-scaling-stroke">
		<g transform="matrix(3.7787 0 0 3.7787 1.0121 63.5853)" id="qz-0">
<rect style="stroke: rgb(69,53,46); stroke-width: 0; stroke-dasharray: none; stroke-linecap: butt; stroke-dashoffset: 0; stroke-linejoin: miter; stroke-miterlimit: 4; is-custom-font: none; font-file-url: none; fill: rgb(247,192,74); fill-rule: nonzero; opacity: 1;" x="-198.7488" y="-4.77095" rx="1" ry="1" width="397.4976" height="9.5419"/>
</g>
		<g transform="matrix(1.2198 0 0 1.2198 664.4168 405.8718)" id="yy-123">
<path style="stroke: none; stroke-width: 1; stroke-dasharray: none; stroke-linecap: butt; stroke-dashoffset: 0; stroke-linejoin: miter; stroke-miterlimit: 4; is-custom-font: none; font-file-url: none; fill: rgb(83,145,101); fill-rule: nonzero; opacity: 1;" transform=" translate(-51.775, 16.94)" d="M 27.73 0 L 3.16 0 L 3.16 -36.36 L 27.66 -36.36 L 27.66 -30.02 L 10.85 -30.02 L 10.85 -21.36 L 26.4 -21.36 L 26.4 -15.02 L 10.85 -15.02 L 10.85 -6.34 L 27.73 -6.34 L 27.73 0 Z M 53.14 -5.22 L 47.51 -12.64 L 54.05 -12.64 L 57.33 -8.42 L 60.56 -4.65 L 66.65 2.98 L 59.48 2.98 L 55.29 -2.17 L 53.14 -5.22 Z M 67.2 -18.18 L 67.2 -18.18 Q 67.2 -12.23 64.96 -8.06 Q 62.71 -3.89 58.85 -1.7 Q 54.99 0.5 50.18 0.5 L 50.18 0.5 Q 45.33 0.5 41.47 -1.7 Q 37.62 -3.91 35.38 -8.08 Q 33.15 -12.25 33.15 -18.18 L 33.15 -18.18 Q 33.15 -24.13 35.38 -28.3 Q 37.62 -32.48 41.47 -34.67 Q 45.33 -36.86 50.18 -36.86 L 50.18 -36.86 Q 54.99 -36.86 58.85 -34.67 Q 62.71 -32.48 64.96 -28.3 Q 67.2 -24.13 67.2 -18.18 Z M 59.41 -18.18 L 59.41 -18.18 Q 59.41 -22.03 58.26 -24.68 Q 57.12 -27.33 55.04 -28.69 Q 52.96 -30.06 50.18 -30.06 L 50.18 -30.06 Q 47.39 -30.06 45.31 -28.69 Q 43.23 -27.33 42.09 -24.68 Q 40.94 -22.03 40.94 -18.18 L 40.94 -18.18 Q 40.94 -14.33 42.09 -11.68 Q 43.23 -9.04 45.31 -7.67 Q 47.39 -6.3 50.18 -6.3 L 50.18 -6.3 Q 52.96 -6.3 55.04 -7.67 Q 57.12 -9.04 58.26 -11.68 Q 59.41 -14.33 59.41 -18.18 Z M 86.27 0.5 L 86.27 0.5 Q 82.17 0.5 78.98 -0.84 Q 75.79 -2.18 73.98 -4.51 Q 72.17 -6.84 72.17 -9.78 L 72.17 -9.78 Q 72.17 -12.06 73.21 -13.96 Q 74.25 -15.87 76.04 -17.14 Q 77.84 -18.41 80.06 -18.77 L 80.06 -18.77 L 80.06 -19.02 Q 77.14 -19.6 75.33 -21.85 Q 73.52 -24.09 73.52 -27.08 L 73.52 -27.08 Q 73.52 -29.9 75.17 -32.11 Q 76.82 -34.32 79.71 -35.59 Q 82.59 -36.86 86.27 -36.86 L 86.27 -36.86 Q 89.95 -36.86 92.83 -35.58 Q 95.72 -34.3 97.37 -32.09 Q 99.02 -29.88 99.04 -27.08 L 99.04 -27.08 Q 99.02 -24.08 97.19 -21.84 Q 95.36 -19.6 92.5 -19.02 L 92.5 -19.02 L 92.5 -18.77 Q 94.69 -18.41 96.47 -17.14 Q 98.25 -15.87 99.31 -13.96 Q 100.37 -12.06 100.39 -9.78 L 100.39 -9.78 Q 100.37 -6.84 98.56 -4.51 Q 96.75 -2.18 93.56 -0.84 Q 90.37 0.5 86.27 0.5 Z M 86.27 -5.15 L 86.27 -5.15 Q 88.1 -5.15 89.47 -5.81 Q 90.83 -6.48 91.61 -7.66 Q 92.38 -8.84 92.38 -10.39 L 92.38 -10.39 Q 92.38 -11.97 91.58 -13.18 Q 90.78 -14.4 89.41 -15.1 Q 88.05 -15.8 86.27 -15.8 L 86.27 -15.8 Q 84.51 -15.8 83.13 -15.1 Q 81.74 -14.4 80.95 -13.18 Q 80.16 -11.97 80.16 -10.39 L 80.16 -10.39 Q 80.16 -8.84 80.93 -7.66 Q 81.69 -6.48 83.07 -5.81 Q 84.46 -5.15 86.27 -5.15 Z M 86.27 -21.4 L 86.27 -21.4 Q 87.8 -21.4 88.99 -22.02 Q 90.18 -22.64 90.85 -23.74 Q 91.53 -24.84 91.53 -26.28 L 91.53 -26.28 Q 91.53 -27.7 90.85 -28.77 Q 90.18 -29.85 89 -30.46 Q 87.83 -31.07 86.27 -31.07 L 86.27 -31.07 Q 84.73 -31.07 83.54 -30.46 Q 82.35 -29.85 81.68 -28.77 Q 81.01 -27.7 81.01 -26.28 L 81.01 -26.28 Q 81.01 -24.84 81.69 -23.74 Q 82.36 -22.64 83.55 -22.02 Q 84.74 -21.4 86.27 -21.4 Z" stroke-linecap="round"/>
</g>
		<g transform="matrix(8.7391 0 0 8.7391 664.4179 405.8688)" id="scriptcircle">
<path style="stroke: none; stroke-width: 1; stroke-dasharray: none; stroke-linecap: butt; stroke-dashoffset: 0; stroke-linejoin: miter; stroke-miterlimit: 4; is-custom-font: none; font-file-url: none; fill: rgb(83,145,101); fill-rule: nonzero; opacity: 1;" transform=" translate(-165.2515, 9.5965)" d="M 155.655 -9.596 C 155.655 -14.896 159.951 -19.193 165.251 -19.193 C 170.551 -19.193 174.848 -14.896 174.848 -9.596 C 174.848 -4.296 170.551 0 165.251 0 C 159.951 0 155.655 -4.296 155.655 -9.596 Z M 165.251 -0.4 C 170.33 -0.4 174.448 -4.517 174.448 -9.596 C 174.448 -14.675 170.33 -18.793 165.251 -18.793 C 160.172 -18.793 156.055 -14.675 156.055 -9.596 C 156.055 -4.517 160.172 -0.4 165.251 -0.4 Z" stroke-linecap="round"/>
</g>
		<g transform="matrix(8.7391 0 0 8.7391 -100.1383 375.9066)" id="text-0">
<path style="stroke: none; stroke-width: 1; stroke-dasharray: none; stroke-linecap: butt; stroke-dashoffset: 0; stroke-linejoin: miter; stroke-miterlimit: 4; is-custom-font: none; font-file-url: none; fill: rgb(83,145,101); fill-rule: nonzero; opacity: 1;" transform=" translate(-77.765, 13.025)" d="M 22.65 -3.55 L 22.65 0 L 3.85 0 L 3.85 -33.7 L 22.4 -33.7 L 22.4 -30.15 L 7.9 -30.15 L 7.9 -18.6 L 20.7 -18.6 L 20.7 -15.05 L 7.9 -15.05 L 7.9 -3.55 L 22.65 -3.55 Z M 31.3 -12.9 L 31.3 -12.9 Q 31.3 -8.25 33.35 -5.73 Q 35.4 -3.2 38.6 -3.2 L 38.6 -3.2 Q 41.35 -3.2 43.57 -5.48 Q 45.8 -7.75 45.8 -12.65 L 45.8 -12.65 Q 45.8 -17.7 43.6 -19.93 Q 41.4 -22.15 38.35 -22.15 Q 35.3 -22.15 33.3 -19.6 Q 31.3 -17.05 31.3 -12.9 Z M 49.75 -25.35 L 49.75 9.85 L 45.8 9.85 L 45.8 -3.8 Q 43.05 0.4 38.1 0.4 L 38.1 0.4 Q 33.25 0.4 30.22 -3.33 Q 27.2 -7.05 27.2 -12.9 L 27.2 -12.9 Q 27.2 -18.4 30.1 -22.08 Q 33 -25.75 38.05 -25.75 Q 43.1 -25.75 45.8 -21.6 L 45.8 -21.6 L 45.8 -25.35 L 49.75 -25.35 Z M 76.75 -25.35 L 76.75 0 L 72.8 0 L 72.8 -4.4 Q 70.8 0.3 64.84 0.3 L 64.84 0.3 Q 61.1 0.3 58.92 -1.93 Q 56.75 -4.15 56.75 -7.9 L 56.75 -7.9 L 56.75 -25.35 L 60.7 -25.35 L 60.7 -8.9 Q 60.7 -6.15 62.1 -4.7 Q 63.5 -3.25 65.9 -3.25 L 65.9 -3.25 Q 69.05 -3.25 70.92 -5.45 Q 72.8 -7.65 72.8 -11.4 L 72.8 -11.4 L 72.8 -25.35 L 76.75 -25.35 Z M 88.19 -25.35 L 88.19 0 L 84.24 0 L 84.24 -25.35 L 88.19 -25.35 Z M 88.04 -35.15 Q 88.79 -34.4 88.79 -33.3 Q 88.79 -32.2 88.04 -31.48 Q 87.29 -30.75 86.19 -30.75 Q 85.09 -30.75 84.37 -31.48 Q 83.64 -32.2 83.64 -33.3 Q 83.64 -34.4 84.37 -35.15 Q 85.09 -35.9 86.19 -35.9 Q 87.29 -35.9 88.04 -35.15 Z M 108.19 0 L 108.19 0 L 95.89 0 L 95.89 -33.7 L 106.04 -33.7 Q 111.24 -33.7 114.37 -31.3 Q 117.49 -28.9 117.49 -24.85 L 117.49 -24.85 Q 117.49 -21.95 115.87 -19.83 Q 114.24 -17.7 111.69 -17.15 L 111.69 -17.15 Q 114.49 -16.7 116.47 -14.63 Q 118.44 -12.55 118.44 -9 L 118.44 -9 Q 118.44 -4.95 115.77 -2.48 Q 113.09 0 108.19 0 Z M 106.04 -30.25 L 106.04 -30.25 L 99.94 -30.25 L 99.94 -18.75 L 105.34 -18.75 Q 109.39 -18.75 111.34 -20.45 Q 113.29 -22.15 113.29 -24.85 L 113.29 -24.85 Q 113.29 -27.2 111.47 -28.73 Q 109.64 -30.25 106.04 -30.25 Z M 106.84 -15.3 L 106.84 -15.3 L 99.94 -15.3 L 99.94 -3.45 L 107.59 -3.45 Q 110.79 -3.45 112.52 -4.93 Q 114.24 -6.4 114.24 -9.25 Q 114.24 -12.1 112.32 -13.7 Q 110.39 -15.3 106.84 -15.3 Z M 128.39 -25.35 L 128.39 0 L 124.44 0 L 124.44 -25.35 L 128.39 -25.35 Z M 128.24 -35.15 Q 128.99 -34.4 128.99 -33.3 Q 128.99 -32.2 128.24 -31.48 Q 127.49 -30.75 126.39 -30.75 Q 125.29 -30.75 124.56 -31.48 Q 123.84 -32.2 123.84 -33.3 Q 123.84 -34.4 124.56 -35.15 Q 125.29 -35.9 126.39 -35.9 Q 127.49 -35.9 128.24 -35.15 Z M 140.04 -35.35 L 140.04 0 L 136.09 0 L 136.09 -35.35 L 140.04 -35.35 Z M 151.68 -35.35 L 151.68 0 L 147.73 0 L 147.73 -35.35 L 151.68 -35.35 Z" stroke-linecap="round"/>
</g>
		<g transform="matrix(1.5859 0 0 1.5859 -112.4984 706.201)" id="text-1">
<path style="stroke: none; stroke-width: 1; stroke-dasharray: none; stroke-linecap: butt; stroke-dashoffset: 0; stroke-linejoin: miter; stroke-miterlimit: 4; is-custom-font: none; font-file-url: none; fill: rgb(83,145,101); fill-rule: nonzero; opacity: 1;" transform=" translate(-402.675, 12.4)" d="M 16.6 -35.1 L 16.6 -35.1 Q 18.8 -35.1 20.38 -35 Q 21.95 -34.9 23.28 -34.68 Q 24.6 -34.45 26 -34.1 L 26 -34.1 L 25.55 -30.75 Q 24.05 -30.9 22.78 -31 Q 21.5 -31.1 20.05 -31.15 Q 18.6 -31.2 16.6 -31.2 L 16.6 -31.2 Q 13.25 -31.2 11.3 -29.9 Q 9.35 -28.6 8.53 -25.55 Q 7.7 -22.5 7.7 -17.25 L 7.7 -17.25 Q 7.7 -12 8.53 -8.95 Q 9.35 -5.9 11.3 -4.6 Q 13.25 -3.3 16.6 -3.3 L 16.6 -3.3 Q 19.8 -3.3 21.98 -3.43 Q 24.15 -3.55 26.25 -3.85 L 26.25 -3.85 L 26.7 -0.55 Q 24.55 0.05 22.28 0.33 Q 20 0.6 16.6 0.6 L 16.6 0.6 Q 11.65 0.6 8.68 -1.13 Q 5.7 -2.85 4.38 -6.75 Q 3.05 -10.65 3.05 -17.25 L 3.05 -17.25 Q 3.05 -23.85 4.38 -27.75 Q 5.7 -31.65 8.68 -33.38 Q 11.65 -35.1 16.6 -35.1 Z M 42.7 -24.95 L 42.7 -24.95 Q 46.9 -24.95 49.43 -23.7 Q 51.95 -22.45 53.05 -19.63 Q 54.15 -16.8 54.15 -12.15 L 54.15 -12.15 Q 54.15 -7.5 53.05 -4.67 Q 51.95 -1.85 49.43 -0.6 Q 46.9 0.65 42.7 0.65 L 42.7 0.65 Q 38.55 0.65 36.03 -0.6 Q 33.5 -1.85 32.38 -4.67 Q 31.25 -7.5 31.25 -12.15 L 31.25 -12.15 Q 31.25 -16.8 32.38 -19.63 Q 33.5 -22.45 36.03 -23.7 Q 38.55 -24.95 42.7 -24.95 Z M 42.7 -21.35 L 42.7 -21.35 Q 40.05 -21.35 38.53 -20.53 Q 37 -19.7 36.35 -17.7 Q 35.7 -15.7 35.7 -12.15 L 35.7 -12.15 Q 35.7 -8.6 36.35 -6.6 Q 37 -4.6 38.53 -3.78 Q 40.05 -2.95 42.7 -2.95 L 42.7 -2.95 Q 45.35 -2.95 46.9 -3.78 Q 48.45 -4.6 49.1 -6.6 Q 49.75 -8.6 49.75 -12.15 L 49.75 -12.15 Q 49.75 -15.7 49.1 -17.7 Q 48.45 -19.7 46.9 -20.53 Q 45.35 -21.35 42.7 -21.35 Z M 68.9 -24.95 L 68.9 -24.95 Q 70.5 -24.95 72.3 -24.85 Q 74.1 -24.75 75.88 -24.6 Q 77.65 -24.45 79.15 -24.2 L 79.15 -24.2 L 78.8 -21.1 Q 76.5 -21.2 74.18 -21.28 Q 71.85 -21.35 69.55 -21.35 L 69.55 -21.35 Q 67.3 -21.4 66 -21.25 Q 64.7 -21.1 64.13 -20.45 Q 63.55 -19.8 63.55 -18.25 L 63.55 -18.25 Q 63.55 -16.35 64.45 -15.75 Q 65.35 -15.15 67.1 -14.75 L 67.1 -14.75 L 74.2 -13.15 Q 77.1 -12.45 78.48 -11 Q 79.85 -9.55 79.85 -6.45 L 79.85 -6.45 Q 79.85 -3.45 78.73 -1.95 Q 77.6 -0.45 75.3 0.05 Q 73 0.55 69.45 0.55 L 69.45 0.55 Q 68.15 0.55 65.58 0.45 Q 63 0.35 59.9 -0.15 L 59.9 -0.15 L 60.2 -3.25 Q 61.4 -3.2 62.75 -3.13 Q 64.1 -3.05 65.58 -3.05 Q 67.05 -3.05 68.6 -3.05 L 68.6 -3.05 Q 71.35 -3.05 72.9 -3.3 Q 74.45 -3.55 75.1 -4.28 Q 75.75 -5 75.75 -6.45 L 75.75 -6.45 Q 75.75 -8.25 74.7 -8.85 Q 73.65 -9.45 71.9 -9.85 L 71.9 -9.85 L 64.9 -11.45 Q 62.9 -11.95 61.7 -12.78 Q 60.5 -13.6 59.95 -14.93 Q 59.4 -16.25 59.4 -18.25 L 59.4 -18.25 Q 59.4 -21.1 60.4 -22.55 Q 61.4 -24 63.5 -24.5 Q 65.6 -25 68.9 -24.95 Z M 88.05 -31.55 L 92.3 -31.55 L 92.3 -6.7 Q 92.3 -4.95 93.05 -4.2 Q 93.8 -3.45 95.6 -3.45 L 95.6 -3.45 L 99.3 -3.45 L 99.8 -0.2 Q 99 0 97.95 0.15 Q 96.9 0.3 95.9 0.38 Q 94.9 0.45 94.3 0.45 L 94.3 0.45 Q 91.25 0.45 89.65 -1.25 Q 88.05 -2.95 88.05 -6.15 L 88.05 -6.15 L 88.05 -31.55 Z M 88.45 -24.35 L 100.05 -24.35 L 100.05 -21 L 83.65 -21 L 83.65 -24.1 L 88.45 -24.35 Z M 113.35 -24.95 L 113.35 -24.95 Q 114.95 -24.95 116.75 -24.85 Q 118.55 -24.75 120.33 -24.6 Q 122.1 -24.45 123.6 -24.2 L 123.6 -24.2 L 123.25 -21.1 Q 120.95 -21.2 118.63 -21.28 Q 116.3 -21.35 114 -21.35 L 114 -21.35 Q 111.75 -21.4 110.45 -21.25 Q 109.15 -21.1 108.58 -20.45 Q 108 -19.8 108 -18.25 L 108 -18.25 Q 108 -16.35 108.9 -15.75 Q 109.8 -15.15 111.55 -14.75 L 111.55 -14.75 L 118.65 -13.15 Q 121.55 -12.45 122.93 -11 Q 124.3 -9.55 124.3 -6.45 L 124.3 -6.45 Q 124.3 -3.45 123.18 -1.95 Q 122.05 -0.45 119.75 0.05 Q 117.45 0.55 113.9 0.55 L 113.9 0.55 Q 112.6 0.55 110.03 0.45 Q 107.45 0.35 104.35 -0.15 L 104.35 -0.15 L 104.65 -3.25 Q 105.85 -3.2 107.2 -3.13 Q 108.55 -3.05 110.03 -3.05 Q 111.5 -3.05 113.05 -3.05 L 113.05 -3.05 Q 115.8 -3.05 117.35 -3.3 Q 118.9 -3.55 119.55 -4.28 Q 120.2 -5 120.2 -6.45 L 120.2 -6.45 Q 120.2 -8.25 119.15 -8.85 Q 118.1 -9.45 116.35 -9.85 L 116.35 -9.85 L 109.35 -11.45 Q 107.35 -11.95 106.15 -12.78 Q 104.95 -13.6 104.4 -14.93 Q 103.85 -16.25 103.85 -18.25 L 103.85 -18.25 Q 103.85 -21.1 104.85 -22.55 Q 105.85 -24 107.95 -24.5 Q 110.05 -25 113.35 -24.95 Z M 149.05 -34.5 L 153.45 -34.5 L 153.45 0 L 149.05 0 L 149.05 -34.5 Z M 137.95 -34.5 L 164.6 -34.5 L 164.6 -30.6 L 137.95 -30.6 L 137.95 -34.5 Z M 174.4 -24.95 L 174.4 -24.95 Q 178.6 -24.95 181.13 -23.7 Q 183.65 -22.45 184.75 -19.63 Q 185.85 -16.8 185.85 -12.15 L 185.85 -12.15 Q 185.85 -7.5 184.75 -4.67 Q 183.65 -1.85 181.13 -0.6 Q 178.6 0.65 174.4 0.65 L 174.4 0.65 Q 170.25 0.65 167.73 -0.6 Q 165.2 -1.85 164.08 -4.67 Q 162.95 -7.5 162.95 -12.15 L 162.95 -12.15 Q 162.95 -16.8 164.08 -19.63 Q 165.2 -22.45 167.73 -23.7 Q 170.25 -24.95 174.4 -24.95 Z M 174.4 -21.35 L 174.4 -21.35 Q 171.75 -21.35 170.23 -20.53 Q 168.7 -19.7 168.05 -17.7 Q 167.4 -15.7 167.4 -12.15 L 167.4 -12.15 Q 167.4 -8.6 168.05 -6.6 Q 168.7 -4.6 170.23 -3.78 Q 171.75 -2.95 174.4 -2.95 L 174.4 -2.95 Q 177.05 -2.95 178.6 -3.78 Q 180.15 -4.6 180.8 -6.6 Q 181.45 -8.6 181.45 -12.15 L 181.45 -12.15 Q 181.45 -15.7 180.8 -17.7 Q 180.15 -19.7 178.6 -20.53 Q 177.05 -21.35 174.4 -21.35 Z M 202.15 -24.95 L 202.15 -24.95 Q 206.05 -24.95 208.33 -24.15 Q 210.6 -23.35 211.58 -21.65 Q 212.55 -19.95 212.55 -17.2 L 212.55 -17.2 Q 212.55 -14.55 211.58 -12.83 Q 210.6 -11.1 208.3 -10.28 Q 206 -9.45 202.1 -9.45 L 202.1 -9.45 Q 198.2 -9.45 195.93 -10.28 Q 193.65 -11.1 192.68 -12.8 Q 191.7 -14.5 191.7 -17.15 L 191.7 -17.15 Q 191.7 -19.9 192.68 -21.63 Q 193.65 -23.35 195.95 -24.15 Q 198.25 -24.95 202.15 -24.95 Z M 202.1 -21.7 L 202.1 -21.7 Q 198.45 -21.7 197.03 -20.68 Q 195.6 -19.65 195.6 -17.2 L 195.6 -17.2 Q 195.6 -14.8 197.03 -13.75 Q 198.45 -12.7 202.1 -12.7 L 202.1 -12.7 Q 205.8 -12.7 207.2 -13.75 Q 208.6 -14.8 208.6 -17.2 L 208.6 -17.2 Q 208.6 -19.65 207.2 -20.68 Q 205.8 -21.7 202.1 -21.7 Z M 207.2 -24.35 L 215.4 -24.35 L 215.15 -22 L 208.95 -21.5 L 207.2 -24.35 Z M 195.25 -11.05 L 195.25 -11.05 L 197.7 -10.7 Q 196.85 -9.95 196.55 -8.88 Q 196.25 -7.8 196.73 -6.9 Q 197.2 -6 198.75 -5.75 L 198.75 -5.75 L 207.85 -4.3 Q 211.3 -3.8 212.65 -2.15 Q 214 -0.5 214 2.55 L 214 2.55 Q 214 5.4 212.93 7.05 Q 211.85 8.7 209.3 9.4 Q 206.75 10.1 202.4 10.1 L 202.4 10.1 Q 199.1 10.1 196.85 9.73 Q 194.6 9.35 193.23 8.47 Q 191.85 7.6 191.25 6.2 Q 190.65 4.8 190.65 2.7 L 190.65 2.7 Q 190.65 1.1 191.13 0.03 Q 191.6 -1.05 192.63 -1.9 Q 193.65 -2.75 195.3 -3.55 L 195.3 -3.55 L 198.3 -5.2 L 200.25 -4.5 L 197.8 -2.65 Q 196.8 -1.9 196.13 -1.18 Q 195.45 -0.45 195.13 0.38 Q 194.8 1.2 194.8 2.35 L 194.8 2.35 Q 194.8 4.05 195.45 4.95 Q 196.1 5.85 197.75 6.18 Q 199.4 6.5 202.35 6.5 L 202.35 6.5 Q 205.3 6.5 206.93 6.15 Q 208.55 5.8 209.2 4.9 Q 209.85 4 209.85 2.35 L 209.85 2.35 Q 209.85 1.1 209.53 0.45 Q 209.2 -0.2 208.3 -0.55 Q 207.4 -0.9 205.65 -1.15 L 205.65 -1.15 L 196.9 -2.35 Q 195.35 -2.55 194.43 -3.35 Q 193.5 -4.15 193.15 -5.25 Q 192.8 -6.35 192.95 -7.48 Q 193.1 -8.6 193.7 -9.58 Q 194.3 -10.55 195.25 -11.05 Z M 230.2 -24.95 L 230.2 -24.95 Q 235.7 -24.95 238.18 -22.95 Q 240.65 -20.95 240.65 -17 L 240.65 -17 Q 240.7 -13.75 239.3 -11.93 Q 237.9 -10.1 234.85 -10.1 L 234.85 -10.1 L 220.65 -10.1 L 220.65 -13.4 L 233.75 -13.4 Q 235.4 -13.4 235.9 -14.53 Q 236.4 -15.65 236.4 -17 L 236.4 -17 Q 236.35 -19.35 235 -20.35 Q 233.65 -21.35 230.4 -21.35 L 230.4 -21.35 Q 227.75 -21.35 226.23 -20.58 Q 224.7 -19.8 224.08 -17.88 Q 223.45 -15.95 223.45 -12.5 L 223.45 -12.5 Q 223.45 -8.6 224.23 -6.55 Q 225 -4.5 226.7 -3.75 Q 228.4 -3 231.2 -3 L 231.2 -3 Q 233.15 -3 235.48 -3.18 Q 237.8 -3.35 239.65 -3.6 L 239.65 -3.6 L 240.1 -0.75 Q 238.95 -0.3 237.28 0 Q 235.6 0.3 233.83 0.45 Q 232.05 0.6 230.65 0.6 L 230.65 0.6 Q 226.45 0.6 223.9 -0.68 Q 221.35 -1.95 220.18 -4.78 Q 219 -7.6 219 -12.25 L 219 -12.25 Q 219 -17.05 220.18 -19.83 Q 221.35 -22.6 223.83 -23.78 Q 226.3 -24.95 230.2 -24.95 Z M 248.9 -31.55 L 253.15 -31.55 L 253.15 -6.7 Q 253.15 -4.95 253.9 -4.2 Q 254.65 -3.45 256.45 -3.45 L 256.45 -3.45 L 260.15 -3.45 L 260.65 -0.2 Q 259.85 0 258.8 0.15 Q 257.75 0.3 256.75 0.38 Q 255.75 0.45 255.15 0.45 L 255.15 0.45 Q 252.1 0.45 250.5 -1.25 Q 248.9 -2.95 248.9 -6.15 L 248.9 -6.15 L 248.9 -31.55 Z M 249.3 -24.35 L 260.9 -24.35 L 260.9 -21 L 244.5 -21 L 244.5 -24.1 L 249.3 -24.35 Z M 280.9 -24.95 L 280.9 -24.95 Q 287.5 -24.95 287.5 -18.25 L 287.5 -18.25 L 287.5 0 L 283.2 0 L 283.2 -17.05 Q 283.2 -19.5 282.43 -20.43 Q 281.65 -21.35 279.75 -21.35 L 279.75 -21.35 Q 277.5 -21.35 275.25 -20.3 Q 273 -19.25 269.9 -17.25 L 269.9 -17.25 L 269.7 -20.3 Q 272.55 -22.45 275.35 -23.7 Q 278.15 -24.95 280.9 -24.95 Z M 266.1 -35 L 270.35 -35 L 270.4 -25.35 Q 270.4 -23.7 270.28 -22.25 Q 270.15 -20.8 269.9 -19.7 L 269.9 -19.7 L 270.35 -18.95 L 270.35 0 L 266.1 0 L 266.1 -35 Z M 305.15 -24.95 L 305.15 -24.95 Q 310.65 -24.95 313.13 -22.95 Q 315.6 -20.95 315.6 -17 L 315.6 -17 Q 315.65 -13.75 314.25 -11.93 Q 312.85 -10.1 309.8 -10.1 L 309.8 -10.1 L 295.6 -10.1 L 295.6 -13.4 L 308.7 -13.4 Q 310.35 -13.4 310.85 -14.53 Q 311.35 -15.65 311.35 -17 L 311.35 -17 Q 311.3 -19.35 309.95 -20.35 Q 308.6 -21.35 305.35 -21.35 L 305.35 -21.35 Q 302.7 -21.35 301.18 -20.58 Q 299.65 -19.8 299.03 -17.88 Q 298.4 -15.95 298.4 -12.5 L 298.4 -12.5 Q 298.4 -8.6 299.18 -6.55 Q 299.95 -4.5 301.65 -3.75 Q 303.35 -3 306.15 -3 L 306.15 -3 Q 308.1 -3 310.43 -3.18 Q 312.75 -3.35 314.6 -3.6 L 314.6 -3.6 L 315.05 -0.75 Q 313.9 -0.3 312.23 0 Q 310.55 0.3 308.78 0.45 Q 307 0.6 305.6 0.6 L 305.6 0.6 Q 301.4 0.6 298.85 -0.68 Q 296.3 -1.95 295.13 -4.78 Q 293.95 -7.6 293.95 -12.25 L 293.95 -12.25 Q 293.95 -17.05 295.13 -19.83 Q 296.3 -22.6 298.78 -23.78 Q 301.25 -24.95 305.15 -24.95 Z M 322 -24.35 L 325.3 -24.35 L 325.85 -19.7 L 326.25 -18.95 L 326.25 0 L 322 0 L 322 -24.35 Z M 336.15 -24.95 L 337.25 -24.95 L 336.75 -20.95 L 335.35 -20.95 Q 333.2 -20.95 331.05 -20.08 Q 328.9 -19.2 325.8 -17.6 L 325.8 -17.6 L 325.45 -20.25 Q 328.15 -22.45 330.88 -23.7 Q 333.6 -24.95 336.15 -24.95 L 336.15 -24.95 Z M 340.55 -5.9 L 341.8 -5.9 Q 342.7 -5.9 343.03 -5.55 Q 343.35 -5.2 343.35 -4.3 L 343.35 -4.3 L 343.35 -1.1 Q 343.35 0.3 343.13 1.65 Q 342.9 3 342.53 4.23 Q 342.15 5.45 341.6 6.6 L 341.6 6.6 L 339.6 6 Q 339.85 4.45 339.98 3.15 Q 340.1 1.85 340.1 0 L 340.1 0 Q 338.9 0 338.9 -1.4 L 338.9 -1.4 L 338.9 -4.3 Q 338.95 -5.2 339.35 -5.55 Q 339.75 -5.9 340.55 -5.9 L 340.55 -5.9 Z M 390 -34.5 L 394.95 -34.5 Q 396.75 -34.5 396.75 -32.65 L 396.75 -32.65 L 398.2 0 L 393.8 0 L 392.55 -30.85 L 391.5 -30.85 L 383.8 -5.4 Q 383.4 -3.9 381.9 -3.9 L 381.9 -3.9 L 377.95 -3.9 Q 376.4 -3.9 375.95 -5.4 L 375.95 -5.4 L 368.25 -30.85 L 367.25 -30.85 L 366.05 0 L 361.65 0 L 363 -32.65 Q 363.1 -34.5 364.85 -34.5 L 364.85 -34.5 L 369.85 -34.5 Q 371.25 -34.5 371.7 -33 L 371.7 -33 L 378.15 -11.95 Q 378.55 -10.8 378.83 -9.65 Q 379.1 -8.5 379.45 -7.3 L 379.45 -7.3 L 380.35 -7.3 Q 380.7 -8.5 381 -9.65 Q 381.3 -10.8 381.65 -12.05 L 381.65 -12.05 L 388.1 -33 Q 388.5 -34.5 390 -34.5 L 390 -34.5 Z M 416.05 -24.95 L 416.05 -24.95 Q 420.25 -24.95 422.78 -23.7 Q 425.3 -22.45 426.4 -19.63 Q 427.5 -16.8 427.5 -12.15 L 427.5 -12.15 Q 427.5 -7.5 426.4 -4.67 Q 425.3 -1.85 422.78 -0.6 Q 420.25 0.65 416.05 0.65 L 416.05 0.65 Q 411.9 0.65 409.38 -0.6 Q 406.85 -1.85 405.73 -4.67 Q 404.6 -7.5 404.6 -12.15 L 404.6 -12.15 Q 404.6 -16.8 405.73 -19.63 Q 406.85 -22.45 409.38 -23.7 Q 411.9 -24.95 416.05 -24.95 Z M 416.05 -21.35 L 416.05 -21.35 Q 413.4 -21.35 411.88 -20.53 Q 410.35 -19.7 409.7 -17.7 Q 409.05 -15.7 409.05 -12.15 L 409.05 -12.15 Q 409.05 -8.6 409.7 -6.6 Q 410.35 -4.6 411.88 -3.78 Q 413.4 -2.95 416.05 -2.95 L 416.05 -2.95 Q 418.7 -2.95 420.25 -3.78 Q 421.8 -4.6 422.45 -6.6 Q 423.1 -8.6 423.1 -12.15 L 423.1 -12.15 Q 423.1 -15.7 422.45 -17.7 Q 421.8 -19.7 420.25 -20.53 Q 418.7 -21.35 416.05 -21.35 Z M 448.95 -24.95 L 448.95 -24.95 Q 455.55 -24.95 455.55 -18.25 L 455.55 -18.25 L 455.55 0 L 451.3 0 L 451.3 -17.05 Q 451.3 -19.5 450.5 -20.43 Q 449.7 -21.35 447.8 -21.35 L 447.8 -21.35 Q 445.55 -21.35 443.3 -20.25 Q 441.05 -19.15 437.95 -17.25 L 437.95 -17.25 L 437.75 -20.3 Q 440.6 -22.5 443.4 -23.73 Q 446.2 -24.95 448.95 -24.95 Z M 434.15 -24.35 L 437.75 -24.35 L 438.1 -19.7 L 438.4 -18.95 L 438.4 0 L 434.15 0 L 434.15 -24.35 Z M 473.2 -24.95 L 473.2 -24.95 Q 478.7 -24.95 481.18 -22.95 Q 483.65 -20.95 483.65 -17 L 483.65 -17 Q 483.7 -13.75 482.3 -11.93 Q 480.9 -10.1 477.85 -10.1 L 477.85 -10.1 L 463.65 -10.1 L 463.65 -13.4 L 476.75 -13.4 Q 478.4 -13.4 478.9 -14.53 Q 479.4 -15.65 479.4 -17 L 479.4 -17 Q 479.35 -19.35 478 -20.35 Q 476.65 -21.35 473.4 -21.35 L 473.4 -21.35 Q 470.75 -21.35 469.23 -20.58 Q 467.7 -19.8 467.08 -17.88 Q 466.45 -15.95 466.45 -12.5 L 466.45 -12.5 Q 466.45 -8.6 467.23 -6.55 Q 468 -4.5 469.7 -3.75 Q 471.4 -3 474.2 -3 L 474.2 -3 Q 476.15 -3 478.48 -3.18 Q 480.8 -3.35 482.65 -3.6 L 482.65 -3.6 L 483.1 -0.75 Q 481.95 -0.3 480.28 0 Q 478.6 0.3 476.83 0.45 Q 475.05 0.6 473.65 0.6 L 473.65 0.6 Q 469.45 0.6 466.9 -0.68 Q 464.35 -1.95 463.18 -4.78 Q 462 -7.6 462 -12.25 L 462 -12.25 Q 462 -17.05 463.18 -19.83 Q 464.35 -22.6 466.83 -23.78 Q 469.3 -24.95 473.2 -24.95 Z M 506.9 -24.35 L 511.5 -24.35 L 501.75 1.35 Q 501.15 2.95 500.25 4.5 Q 499.35 6.05 498.08 7.33 Q 496.8 8.6 495.08 9.4 Q 493.35 10.2 491.1 10.3 L 491.1 10.3 L 490.7 7.5 Q 493.65 6.55 495.25 4.95 Q 496.85 3.35 497.8 1.05 L 497.8 1.05 L 499 -1.85 Q 499.4 -2.85 499.8 -4.05 Q 500.2 -5.25 500.55 -6.2 L 500.55 -6.2 L 506.9 -24.35 Z M 486.9 -24.35 L 491.45 -24.35 L 497.9 -6.2 Q 498.15 -5.45 498.4 -4.73 Q 498.65 -4 498.8 -3.25 L 498.8 -3.25 L 499.95 -3.25 L 498.55 0 L 497.25 0 Q 496.75 0 496.33 -0.3 Q 495.9 -0.6 495.75 -1.1 L 495.75 -1.1 L 486.9 -24.35 Z M 548 -24.35 L 552.4 -24.35 L 545.3 -1.2 Q 545.15 -0.65 544.7 -0.33 Q 544.25 0 543.65 0 L 543.65 0 L 539.8 0 Q 539.2 0 538.73 -0.38 Q 538.25 -0.75 538.15 -1.35 L 538.15 -1.35 L 534.15 -17.9 Q 533.95 -18.85 533.78 -19.8 Q 533.6 -20.75 533.35 -21.75 L 533.35 -21.75 L 532.75 -21.75 Q 532.55 -20.75 532.33 -19.8 Q 532.1 -18.85 531.9 -17.9 L 531.9 -17.9 L 527.95 -1.35 Q 527.8 -0.75 527.35 -0.38 Q 526.9 0 526.25 0 L 526.25 0 L 522.45 0 Q 521.85 0 521.4 -0.33 Q 520.95 -0.65 520.8 -1.2 L 520.8 -1.2 L 513.7 -24.35 L 518.1 -24.35 L 523.15 -6.4 Q 523.4 -5.5 523.6 -4.58 Q 523.8 -3.65 523.95 -2.75 L 523.95 -2.75 L 524.6 -2.75 Q 524.85 -3.65 525.08 -4.58 Q 525.3 -5.5 525.5 -6.4 L 525.5 -6.4 L 529.55 -23 Q 529.65 -23.6 530.08 -23.98 Q 530.5 -24.35 531.15 -24.35 L 531.15 -24.35 L 535 -24.35 Q 535.6 -24.35 536.03 -23.98 Q 536.45 -23.6 536.6 -22.95 L 536.6 -22.95 L 540.6 -6.4 Q 540.8 -5.5 541.03 -4.6 Q 541.25 -3.7 541.45 -2.75 L 541.45 -2.75 L 542.1 -2.75 Q 542.35 -3.7 542.5 -4.58 Q 542.65 -5.45 542.95 -6.4 L 542.95 -6.4 L 548 -24.35 Z M 557.75 -24.35 L 561.95 -24.35 L 561.95 0 L 557.75 0 L 557.75 -24.35 Z M 558.85 -34.7 L 560.85 -34.7 Q 562.15 -34.7 562.15 -33.4 L 562.15 -33.4 L 562.15 -30.55 Q 562.15 -29.25 560.85 -29.25 L 560.85 -29.25 L 558.85 -29.25 Q 557.55 -29.25 557.55 -30.55 L 557.55 -30.55 L 557.55 -33.4 Q 557.55 -34.7 558.85 -34.7 L 558.85 -34.7 Z M 578.05 -24.95 L 578.05 -24.95 Q 579.65 -24.95 581.45 -24.85 Q 583.25 -24.75 585.03 -24.6 Q 586.8 -24.45 588.3 -24.2 L 588.3 -24.2 L 587.95 -21.1 Q 585.65 -21.2 583.33 -21.28 Q 581 -21.35 578.7 -21.35 L 578.7 -21.35 Q 576.45 -21.4 575.15 -21.25 Q 573.85 -21.1 573.28 -20.45 Q 572.7 -19.8 572.7 -18.25 L 572.7 -18.25 Q 572.7 -16.35 573.6 -15.75 Q 574.5 -15.15 576.25 -14.75 L 576.25 -14.75 L 583.35 -13.15 Q 586.25 -12.45 587.63 -11 Q 589 -9.55 589 -6.45 L 589 -6.45 Q 589 -3.45 587.88 -1.95 Q 586.75 -0.45 584.45 0.05 Q 582.15 0.55 578.6 0.55 L 578.6 0.55 Q 577.3 0.55 574.73 0.45 Q 572.15 0.35 569.05 -0.15 L 569.05 -0.15 L 569.35 -3.25 Q 570.55 -3.2 571.9 -3.13 Q 573.25 -3.05 574.73 -3.05 Q 576.2 -3.05 577.75 -3.05 L 577.75 -3.05 Q 580.5 -3.05 582.05 -3.3 Q 583.6 -3.55 584.25 -4.28 Q 584.9 -5 584.9 -6.45 L 584.9 -6.45 Q 584.9 -8.25 583.85 -8.85 Q 582.8 -9.45 581.05 -9.85 L 581.05 -9.85 L 574.05 -11.45 Q 572.05 -11.95 570.85 -12.78 Q 569.65 -13.6 569.1 -14.93 Q 568.55 -16.25 568.55 -18.25 L 568.55 -18.25 Q 568.55 -21.1 569.55 -22.55 Q 570.55 -24 572.65 -24.5 Q 574.75 -25 578.05 -24.95 Z M 605.35 -24.95 L 605.35 -24.95 Q 610.85 -24.95 613.33 -22.95 Q 615.8 -20.95 615.8 -17 L 615.8 -17 Q 615.85 -13.75 614.45 -11.93 Q 613.05 -10.1 610 -10.1 L 610 -10.1 L 595.8 -10.1 L 595.8 -13.4 L 608.9 -13.4 Q 610.55 -13.4 611.05 -14.53 Q 611.55 -15.65 611.55 -17 L 611.55 -17 Q 611.5 -19.35 610.15 -20.35 Q 608.8 -21.35 605.55 -21.35 L 605.55 -21.35 Q 602.9 -21.35 601.38 -20.58 Q 599.85 -19.8 599.23 -17.88 Q 598.6 -15.95 598.6 -12.5 L 598.6 -12.5 Q 598.6 -8.6 599.38 -6.55 Q 600.15 -4.5 601.85 -3.75 Q 603.55 -3 606.35 -3 L 606.35 -3 Q 608.3 -3 610.63 -3.18 Q 612.95 -3.35 614.8 -3.6 L 614.8 -3.6 L 615.25 -0.75 Q 614.1 -0.3 612.43 0 Q 610.75 0.3 608.98 0.45 Q 607.2 0.6 605.8 0.6 L 605.8 0.6 Q 601.6 0.6 599.05 -0.68 Q 596.5 -1.95 595.33 -4.78 Q 594.15 -7.6 594.15 -12.25 L 594.15 -12.25 Q 594.15 -17.05 595.33 -19.83 Q 596.5 -22.6 598.98 -23.78 Q 601.45 -24.95 605.35 -24.95 Z M 640.35 -34.55 L 640.35 -34.55 Q 642.75 -34.55 645.2 -34.52 Q 647.65 -34.5 650.05 -34.45 Q 652.45 -34.4 654.65 -34.2 L 654.65 -34.2 L 654.4 -30.8 L 641.45 -30.8 Q 639.7 -30.8 638.9 -30.03 Q 638.1 -29.25 638.1 -27.5 L 638.1 -27.5 L 638.1 0 L 633.7 0 L 633.7 -28.35 Q 633.7 -31.3 635.5 -32.93 Q 637.3 -34.55 640.35 -34.55 Z M 634.55 -15.95 L 634.55 -19.5 L 652.5 -19.5 L 652.5 -15.95 L 634.55 -15.95 Z M 669.8 -24.95 L 669.8 -24.95 Q 674 -24.95 676.53 -23.7 Q 679.05 -22.45 680.15 -19.63 Q 681.25 -16.8 681.25 -12.15 L 681.25 -12.15 Q 681.25 -7.5 680.15 -4.67 Q 679.05 -1.85 676.53 -0.6 Q 674 0.65 669.8 0.65 L 669.8 0.65 Q 665.65 0.65 663.13 -0.6 Q 660.6 -1.85 659.48 -4.67 Q 658.35 -7.5 658.35 -12.15 L 658.35 -12.15 Q 658.35 -16.8 659.48 -19.63 Q 660.6 -22.45 663.13 -23.7 Q 665.65 -24.95 669.8 -24.95 Z M 669.8 -21.35 L 669.8 -21.35 Q 667.15 -21.35 665.63 -20.53 Q 664.1 -19.7 663.45 -17.7 Q 662.8 -15.7 662.8 -12.15 L 662.8 -12.15 Q 662.8 -8.6 663.45 -6.6 Q 664.1 -4.6 665.63 -3.78 Q 667.15 -2.95 669.8 -2.95 L 669.8 -2.95 Q 672.45 -2.95 674 -3.78 Q 675.55 -4.6 676.2 -6.6 Q 676.85 -8.6 676.85 -12.15 L 676.85 -12.15 Q 676.85 -15.7 676.2 -17.7 Q 675.55 -19.7 674 -20.53 Q 672.45 -21.35 669.8 -21.35 Z M 687.9 -24.35 L 691.2 -24.35 L 691.75 -19.7 L 692.15 -18.95 L 692.15 0 L 687.9 0 L 687.9 -24.35 Z M 702.05 -24.95 L 703.15 -24.95 L 702.65 -20.95 L 701.25 -20.95 Q 699.1 -20.95 696.95 -20.08 Q 694.8 -19.2 691.7 -17.6 L 691.7 -17.6 L 691.35 -20.25 Q 694.05 -22.45 696.78 -23.7 Q 699.5 -24.95 702.05 -24.95 L 702.05 -24.95 Z M 717.3 -24.95 L 717.3 -24.95 Q 722.8 -24.95 725.28 -22.95 Q 727.75 -20.95 727.75 -17 L 727.75 -17 Q 727.8 -13.75 726.4 -11.93 Q 725 -10.1 721.95 -10.1 L 721.95 -10.1 L 707.75 -10.1 L 707.75 -13.4 L 720.85 -13.4 Q 722.5 -13.4 723 -14.53 Q 723.5 -15.65 723.5 -17 L 723.5 -17 Q 723.45 -19.35 722.1 -20.35 Q 720.75 -21.35 717.5 -21.35 L 717.5 -21.35 Q 714.85 -21.35 713.33 -20.58 Q 711.8 -19.8 711.18 -17.88 Q 710.55 -15.95 710.55 -12.5 L 710.55 -12.5 Q 710.55 -8.6 711.33 -6.55 Q 712.1 -4.5 713.8 -3.75 Q 715.5 -3 718.3 -3 L 718.3 -3 Q 720.25 -3 722.58 -3.18 Q 724.9 -3.35 726.75 -3.6 L 726.75 -3.6 L 727.2 -0.75 Q 726.05 -0.3 724.38 0 Q 722.7 0.3 720.93 0.45 Q 719.15 0.6 717.75 0.6 L 717.75 0.6 Q 713.55 0.6 711 -0.68 Q 708.45 -1.95 707.28 -4.78 Q 706.1 -7.6 706.1 -12.25 L 706.1 -12.25 Q 706.1 -17.05 707.28 -19.83 Q 708.45 -22.6 710.93 -23.78 Q 713.4 -24.95 717.3 -24.95 Z M 751.15 -24.35 L 755.65 -24.35 L 746.75 -1.05 Q 746.55 -0.55 746.18 -0.28 Q 745.8 0 745.25 0 L 745.25 0 L 741.4 0 Q 740.9 0 740.5 -0.28 Q 740.1 -0.55 739.9 -1.05 L 739.9 -1.05 L 731 -24.35 L 735.55 -24.35 L 741.55 -7.3 Q 741.95 -6.25 742.3 -5.15 Q 742.65 -4.05 743 -3.05 L 743 -3.05 L 743.65 -3.05 Q 744.05 -4.1 744.43 -5.18 Q 744.8 -6.25 745.15 -7.3 L 745.15 -7.3 L 751.15 -24.35 Z M 770.2 -24.95 L 770.2 -24.95 Q 775.7 -24.95 778.18 -22.95 Q 780.65 -20.95 780.65 -17 L 780.65 -17 Q 780.7 -13.75 779.3 -11.93 Q 777.9 -10.1 774.85 -10.1 L 774.85 -10.1 L 760.65 -10.1 L 760.65 -13.4 L 773.75 -13.4 Q 775.4 -13.4 775.9 -14.53 Q 776.4 -15.65 776.4 -17 L 776.4 -17 Q 776.35 -19.35 775 -20.35 Q 773.65 -21.35 770.4 -21.35 L 770.4 -21.35 Q 767.75 -21.35 766.23 -20.58 Q 764.7 -19.8 764.08 -17.88 Q 763.45 -15.95 763.45 -12.5 L 763.45 -12.5 Q 763.45 -8.6 764.23 -6.55 Q 765 -4.5 766.7 -3.75 Q 768.4 -3 771.2 -3 L 771.2 -3 Q 773.15 -3 775.48 -3.18 Q 777.8 -3.35 779.65 -3.6 L 779.65 -3.6 L 780.1 -0.75 Q 778.95 -0.3 777.28 0 Q 775.6 0.3 773.83 0.45 Q 772.05 0.6 770.65 0.6 L 770.65 0.6 Q 766.45 0.6 763.9 -0.68 Q 761.35 -1.95 760.18 -4.78 Q 759 -7.6 759 -12.25 L 759 -12.25 Q 759 -17.05 760.18 -19.83 Q 761.35 -22.6 763.83 -23.78 Q 766.3 -24.95 770.2 -24.95 Z M 787.05 -24.35 L 790.35 -24.35 L 790.9 -19.7 L 791.3 -18.95 L 791.3 0 L 787.05 0 L 787.05 -24.35 Z M 801.2 -24.95 L 802.3 -24.95 L 801.8 -20.95 L 800.4 -20.95 Q 798.25 -20.95 796.1 -20.08 Q 793.95 -19.2 790.85 -17.6 L 790.85 -17.6 L 790.5 -20.25 Q 793.2 -22.45 795.93 -23.7 Q 798.65 -24.95 801.2 -24.95 L 801.2 -24.95 Z" stroke-linecap="round"/>
</g>
		<g transform="matrix(12.2452 0 0 12.2452 -64.3679 -616.8584)" id="icon-0">
<path style="stroke: none; stroke-width: 1; stroke-dasharray: none; stroke-linecap: butt; stroke-dashoffset: 0; stroke-linejoin: miter; stroke-miterlimit: 4; is-custom-font: none; font-file-url: none; fill: rgb(83,145,101); fill-rule: nonzero; opacity: 1;" transform=" translate(-45.484, -33.689)" d="M 48.049 34.971 h -5.13 c -0.708 0 -1.282 -0.573 -1.282 -1.282 s 0.575 -1.282 1.282 -1.282 h 5.13 c 0.708 0 1.282 0.573 1.282 1.282 S 48.757 34.971 48.049 34.971 z" stroke-linecap="round"/>
</g>
		<g transform="matrix(12.2452 0 0 12.2452 92.6828 -554.0407)" id="icon-0">
<path style="stroke: none; stroke-width: 1; stroke-dasharray: none; stroke-linecap: butt; stroke-dashoffset: 0; stroke-linejoin: miter; stroke-miterlimit: 4; is-custom-font: none; font-file-url: none; fill: rgb(83,145,101); fill-rule: nonzero; opacity: 1;" transform=" translate(-58.3095, -38.819)" d="M 71.133 40.101 H 45.485 c -0.708 0 -1.282 -0.573 -1.282 -1.282 s 0.575 -1.282 1.282 -1.282 h 25.649 c 0.708 0 1.282 0.573 1.282 1.282 S 71.841 40.101 71.133 40.101 z" stroke-linecap="round"/>
</g>
		<g transform="matrix(12.2452 0 0 12.2452 61.2678 -491.223)" id="icon-0">
<path style="stroke: none; stroke-width: 1; stroke-dasharray: none; stroke-linecap: butt; stroke-dashoffset: 0; stroke-linejoin: miter; stroke-miterlimit: 4; is-custom-font: none; font-file-url: none; fill: rgb(83,145,101); fill-rule: nonzero; opacity: 1;" transform=" translate(-55.744, -43.949)" d="M 69.851 45.231 H 41.637 c -0.708 0 -1.282 -0.573 -1.282 -1.282 s 0.575 -1.282 1.282 -1.282 h 28.214 c 0.708 0 1.282 0.573 1.282 1.282 S 70.559 45.231 69.851 45.231 z" stroke-linecap="round"/>
</g>
		<g transform="matrix(12.2452 0 0 12.2452 69.117 -428.4052)" id="icon-0">
<path style="stroke: none; stroke-width: 1; stroke-dasharray: none; stroke-linecap: butt; stroke-dashoffset: 0; stroke-linejoin: miter; stroke-miterlimit: 4; is-custom-font: none; font-file-url: none; fill: rgb(83,145,101); fill-rule: nonzero; opacity: 1;" transform=" translate(-56.385, -49.079)" d="M 71.133 50.361 H 41.637 c -0.708 0 -1.282 -0.573 -1.282 -1.282 c 0 -0.709 0.575 -1.282 1.282 -1.282 h 29.496 c 0.708 0 1.282 0.573 1.282 1.282 C 72.416 49.787 71.841 50.361 71.133 50.361 z" stroke-linecap="round"/>
</g>
		<g transform="matrix(12.2452 0 0 12.2452 53.4125 -365.5998)" id="icon-0">
<path style="stroke: none; stroke-width: 1; stroke-dasharray: none; stroke-linecap: butt; stroke-dashoffset: 0; stroke-linejoin: miter; stroke-miterlimit: 4; is-custom-font: none; font-file-url: none; fill: rgb(83,145,101); fill-rule: nonzero; opacity: 1;" transform=" translate(-55.1025, -54.208)" d="M 68.568 55.49 H 41.637 c -0.708 0 -1.282 -0.573 -1.282 -1.282 c 0 -0.709 0.575 -1.282 1.282 -1.282 h 26.931 c 0.708 0 1.282 0.573 1.282 1.282 C 69.851 54.917 69.276 55.49 68.568 55.49 z" stroke-linecap="round"/>
</g>
		<g transform="matrix(12.2452 0 0 12.2452 403.0609 -660.3531)" id="icon-0">
<path style="stroke: none; stroke-width: 1; stroke-dasharray: none; stroke-linecap: butt; stroke-dashoffset: 0; stroke-linejoin: miter; stroke-miterlimit: 4; is-custom-font: none; font-file-url: none; fill: rgb(83,145,101); fill-rule: nonzero; opacity: 1;" transform=" translate(-83.6565, -30.137)" d="M 88.536 36.722 l -9.76 -0.071 l 0.021 -2.871 l 6.868 0.05 v -4.626 c 0 -1.534 -1.248 -2.781 -2.781 -2.781 v -2.871 c 3.116 0 5.653 2.535 5.653 5.653 V 36.722 z" stroke-linecap="round"/>
</g>
		<g transform="matrix(12.2452 0 0 12.2452 227.5202 -236.5171)" id="icon-0">
<path style="stroke: none; stroke-width: 1; stroke-dasharray: none; stroke-linecap: butt; stroke-dashoffset: 0; stroke-linejoin: miter; stroke-miterlimit: 4; is-custom-font: none; font-file-url: none; fill: rgb(83,145,101); fill-rule: nonzero; opacity: 1;" transform=" translate(-69.321, -64.7495)" d="M 72.685 69.519 c -1.558 0 -2.473 -0.632 -2.965 -1.162 c -1.069 -1.15 -0.991 -2.661 -0.979 -2.83 c -0.004 -1.429 -1.251 -2.676 -2.785 -2.676 v -2.871 c 3.116 0 5.653 2.536 5.653 5.653 c -0.006 0.196 0.026 0.576 0.222 0.778 c 0.19 0.198 0.57 0.238 0.855 0.238 V 69.519 z" stroke-linecap="round"/>
</g>
		<g transform="matrix(12.2452 0 0 12.2452 85.4217 -459.7339)" id="icon-0">
<path style="stroke: none; stroke-width: 1; stroke-dasharray: none; stroke-linecap: butt; stroke-dashoffset: 0; stroke-linejoin: miter; stroke-miterlimit: 4; is-custom-font: none; font-file-url: none; fill: rgb(83,145,101); fill-rule: nonzero; opacity: 1;" transform=" translate(-57.7165, -46.5205)" d="M 75.047 69.49 H 60.333 v -3.858 c 0 -1.011 0.266 -1.96 0.732 -2.781 H 31.951 V 29.204 c 0 -3.116 2.536 -5.653 5.653 -5.653 h 45.878 v 2.871 c -1.534 0 -2.781 1.248 -2.781 2.781 v 34.634 C 80.7 66.954 78.164 69.49 75.047 69.49 z M 63.204 66.619 h 11.843 c 1.534 0 2.781 -1.248 2.781 -2.781 V 29.204 c 0 -1.01 0.266 -1.96 0.732 -2.781 H 37.604 c -1.534 0 -2.781 1.248 -2.781 2.781 v 30.776 h 31.163 v 2.871 c -1.534 0 -2.781 1.248 -2.781 2.781 V 66.619 z" stroke-linecap="round"/>
</g>
		<g transform="matrix(12.2452 0 0 12.2452 -137.0669 -171.8809)" id="icon-0">
<path style="stroke: none; stroke-width: 1; stroke-dasharray: none; stroke-linecap: butt; stroke-dashoffset: 0; stroke-linejoin: miter; stroke-miterlimit: 4; is-custom-font: none; font-file-url: none; fill: rgb(83,145,101); fill-rule: nonzero; opacity: 1;" transform=" translate(-39.547, -70.028)" d="M 57.551 80.077 H 13.109 v -2.871 c 1.534 0 2.781 -1.248 2.781 -2.781 v -8.793 c 0 -3.116 2.536 -5.653 5.653 -5.653 h 44.442 v 2.871 c -1.534 0 -2.781 1.248 -2.781 2.781 v 8.793 C 63.204 77.541 60.668 80.077 57.551 80.077 z M 18.029 77.206 h 39.522 c 1.534 0 2.781 -1.248 2.781 -2.781 v -8.793 c 0 -1.011 0.266 -1.96 0.732 -2.781 H 21.543 c -1.534 0 -2.781 1.248 -2.781 2.781 v 8.793 C 18.762 75.436 18.495 76.385 18.029 77.206 z" stroke-linecap="round"/>
</g>
		<g transform="matrix(6 0 0 6 1.0089 0.6)" id="tight-bounds">
<rect style="stroke: none; stroke-width: 1; stroke-dasharray: none; stroke-linecap: butt; stroke-dashoffset: 0; stroke-linejoin: miter; stroke-miterlimit: 4; is-custom-font: none; font-file-url: none; fill: none; fill-rule: nonzero; opacity: 1;" x="-125.16815" y="-123.6" rx="0" ry="0" width="250.3363" height="247.2"/>
</g>
</g>
</g>
</svg>